<svg xmlns="http://www.w3.org/2000/svg" fill="none" viewBox="378.651 121.476 520.125 852.624" style="max-height: 500px" width="520.125" height="852.624">
<mask height="830" width="842" y="131" x="179" maskUnits="userSpaceOnUse" style="mask-type:luminance" id="mask0_0_1">
<path fill="white" d="M179.719 131.885H1020.9V960.115H179.719V131.885Z"/>
</mask>
<g mask="url(#mask0_0_1)">
<mask height="830" width="842" y="131" x="179" maskUnits="userSpaceOnUse" style="mask-type:luminance" id="mask1_0_1">
<path fill="white" d="M599.938 131.885C367.854 131.885 179.719 317.292 179.719 546C179.719 774.708 367.854 960.115 599.938 960.115C832.01 960.115 1020.16 774.708 1020.16 546C1020.16 317.292 832.01 131.885 599.938 131.885Z"/>
</mask>
<g mask="url(#mask1_0_1)">
<path fill="black" d="M179.719 131.885H1020.9V960.115H179.719V131.885Z"/>
</g>
</g>
<mask height="829" width="841" y="131" x="179" maskUnits="userSpaceOnUse" style="mask-type:luminance" id="mask2_0_1">
<path fill="white" d="M179.719 131.885H1019.72V959.885H179.719V131.885Z"/>
</mask>
<g mask="url(#mask2_0_1)">
<mask height="830" width="842" y="131" x="179" maskUnits="userSpaceOnUse" style="mask-type:luminance" id="mask3_0_1">
<path fill="white" d="M599.927 131.885C367.854 131.885 179.719 317.281 179.719 545.99C179.719 774.698 367.854 960.094 599.927 960.094C831.99 960.094 1020.12 774.698 1020.12 545.99C1020.12 317.281 831.99 131.885 599.927 131.885Z"/>
</mask>
<g mask="url(#mask3_0_1)">
<path stroke-width="12" stroke="white" d="M599.927 131.885C367.854 131.885 179.719 317.281 179.719 545.99C179.719 774.698 367.854 960.094 599.927 960.094C831.99 960.094 1020.13 774.698 1020.13 545.99C1020.13 317.281 831.99 131.885 599.927 131.885Z"/>
</g>
</g>
<mask height="672" width="691" y="212" x="255" maskUnits="userSpaceOnUse" style="mask-type:luminance" id="mask4_0_1">
<path fill="white" d="M255.177 212.635H945.333V883.188H255.177V212.635Z"/>
</mask>
<g mask="url(#mask4_0_1)">
<mask height="672" width="690" y="212" x="255" maskUnits="userSpaceOnUse" style="mask-type:luminance" id="mask5_0_1">
<path fill="white" d="M600 212.635C409.562 212.635 255.177 362.75 255.177 547.917C255.177 733.083 409.562 883.188 600 883.188C790.438 883.188 944.823 733.083 944.823 547.917C944.823 362.75 790.438 212.635 600 212.635Z"/>
</mask>
<g mask="url(#mask5_0_1)">
<path fill="white" d="M255.177 212.635H944.073V883.188H255.177V212.635Z"/>
</g>
</g>
<mask height="671" width="691" y="212" x="255" maskUnits="userSpaceOnUse" style="mask-type:luminance" id="mask6_0_1">
<path fill="white" d="M255.188 212.635H945.177V882.635H255.188V212.635Z"/>
</mask>
<g mask="url(#mask6_0_1)">
<mask height="672" width="690" y="212" x="255" maskUnits="userSpaceOnUse" style="mask-type:luminance" id="mask7_0_1">
<path fill="white" d="M599.99 212.635C409.562 212.635 255.188 362.74 255.188 547.906C255.188 733.063 409.562 883.167 599.99 883.167C790.427 883.167 944.802 733.063 944.802 547.906C944.802 362.74 790.427 212.635 599.99 212.635Z"/>
</mask>
<g mask="url(#mask7_0_1)">
<path stroke-width="4" stroke="white" d="M599.99 212.635C409.562 212.635 255.188 362.74 255.188 547.906C255.188 733.063 409.562 883.167 599.99 883.167C790.427 883.167 944.802 733.063 944.802 547.906C944.802 362.74 790.427 212.635 599.99 212.635Z"/>
</g>
</g>
<mask height="123" width="395" y="293" x="242" maskUnits="userSpaceOnUse" style="mask-type:luminance" id="mask8_0_1">
<path fill="white" d="M242.635 293.573H636.229V415.833H242.635V293.573Z"/>
</mask>
<g mask="url(#mask8_0_1)">
<mask height="123" width="394" y="293" x="243" maskUnits="userSpaceOnUse" style="mask-type:luminance" id="mask9_0_1">
<path fill="white" d="M249.323 403.135C273.917 399.365 283.115 395.604 292.115 390.854C302.917 385.302 318.917 372.031 325.708 368.865C328.312 367.875 331.51 367.083 331.708 367.479C331.906 367.875 326.312 372.229 326.115 372.229C326.115 372.031 328.906 367.281 331.312 366.885C334.708 366.094 345.302 374.01 345.708 373.615C345.906 373.417 340.708 371.438 340.906 369.854C340.906 365.698 361.906 352.427 368.698 350.844C371.896 350.24 373.104 351.042 376.5 352.229C383.896 355 409.094 373.021 409.292 372.625C409.49 372.625 404.292 369.458 404.49 368.865C405.292 367.479 436.281 380.156 450.281 381.74C461.677 382.927 471.073 383.125 481.875 379.958C495.073 376.198 515.062 359.75 522.865 356.781C525.667 355.792 526.865 355 528.865 355.594C531.667 356.188 537.458 361.729 537.062 362.323C536.865 362.719 531.062 361.333 531.062 360.542C530.865 358.958 541.656 357.573 548.865 353.219C562.458 344.896 590.646 316.177 602.844 307.26C608.844 302.906 612.844 300.323 616.448 298.542C618.844 297.354 621.844 295.969 622.448 296.365C622.844 296.76 622.042 297.948 622.448 298.146C623.042 298.344 626.042 294.583 627.844 294.188C629.438 293.792 631.24 293.99 632.438 294.979C634.042 295.969 636.042 298.542 636.042 300.521C636.24 302.51 635.042 305.479 633.438 306.667C632.042 308.052 628.844 308.646 626.844 308.052C624.844 307.458 622.646 305.281 622.042 303.302C621.448 301.51 622.042 298.344 623.24 296.76C624.438 295.177 627.438 293.99 629.438 293.99C631.438 294.188 634.24 295.969 635.24 297.552C636.24 299.333 636.635 302.115 635.438 304.292C632.844 308.844 619.646 312.406 611.448 318.354C601.646 325.875 590.854 338.563 581.25 346.479C573.25 353.219 566.26 358.958 558.26 363.719C550.656 368.073 540.26 374.604 534.062 373.813C529.667 373.219 524.062 365.698 523.865 365.896C523.667 366.094 527.469 370.844 527.667 370.646C527.865 370.646 523.062 363.323 523.26 363.125C523.469 363.125 528.667 366.49 528.26 368.865C527.667 373.417 508.469 383.125 500.875 387.281C495.875 390.063 492.469 391.448 488.073 392.833C483.271 394.417 479.073 395.406 472.875 396C464.083 396.594 450.677 396.198 439.083 394.021C426.292 391.844 411.292 387.281 399.49 382.135C388.896 377.385 371.302 368.865 371.104 365.104C371.104 363.521 375.896 361.333 375.896 361.333C375.896 361.135 353.708 378.375 347.708 381.74C345.302 383.125 344.104 383.917 342.104 384.115C340.104 384.313 337.51 383.719 335.708 382.729C334.104 381.938 331.104 379.76 331.312 378.771C331.51 377.781 337.51 376.396 337.708 376.792C338.104 377.979 309.719 396.594 297.719 402.74C288.917 407.292 280.521 409.865 273.521 412.042C268.323 413.635 264.125 415.021 259.521 415.417C255.521 415.813 250.531 416.01 247.729 415.219C246.125 414.625 244.927 413.833 244.125 412.646C243.531 411.646 242.927 409.865 243.125 408.479C243.333 407.094 244.125 405.51 245.125 404.719C246.125 403.729 249.323 403.135 249.323 403.135Z"/>
</mask>
<g mask="url(#mask9_0_1)">
<path fill="black" d="M235.135 286.063H644.271V423.333H235.135V286.063Z"/>
</g>
</g>
<mask height="10" width="13" y="362" x="519" maskUnits="userSpaceOnUse" style="mask-type:luminance" id="mask10_0_1">
<path fill="white" d="M519.771 362.302H531.323V371.833H519.771V362.302Z"/>
</mask>
<g mask="url(#mask10_0_1)">
<mask height="10" width="13" y="362" x="519" maskUnits="userSpaceOnUse" style="mask-type:luminance" id="mask11_0_1">
<path fill="white" d="M531.26 365.698C526.063 373.615 521.271 372.229 520.271 370.448C519.271 368.865 520.271 363.917 521.667 362.719C523.26 361.531 529.667 363.323 529.667 363.323"/>
</mask>
<g mask="url(#mask11_0_1)">
<path fill="black" d="M512.271 354.802H539.229V380.75H512.271V354.802Z"/>
</g>
</g>
<mask height="152" width="375" y="293" x="622" maskUnits="userSpaceOnUse" style="mask-type:luminance" id="mask12_0_1">
<path fill="white" d="M622.021 293.198H996.812V444.927H622.021V293.198Z"/>
</mask>
<g mask="url(#mask12_0_1)">
<mask height="152" width="375" y="293" x="622" maskUnits="userSpaceOnUse" style="mask-type:luminance" id="mask13_0_1">
<path fill="white" d="M630.24 293.99C712.021 341.135 752.208 375.406 752.417 375.198C752.417 375.198 747.615 371.635 747.813 371.438C748.01 371.042 765.615 381.344 765.813 381.146C765.813 380.948 760.813 377.979 761.01 377.583C761.615 376.396 791.802 392.833 805.802 393.823C817.802 394.813 831.792 386.885 839.396 387.083C843.396 387.083 844.792 387.281 848.594 388.875C856.385 392.24 870.385 405.115 880.979 410.656C889.781 415.417 897.979 418.188 906.979 420.958C915.979 423.927 923.979 426.51 935.167 428.094C950.969 430.469 986.958 424.927 993.76 430.271C996.563 432.448 996.958 436.406 996.156 438.594C995.563 440.573 992.76 442.552 990.958 442.948C989.563 443.542 987.76 443.344 986.365 442.552C984.76 441.563 982.76 439.188 982.365 437.208C981.958 435.219 983.156 432.25 984.563 430.865C985.563 429.677 987.156 429.083 988.76 428.885C990.156 428.688 991.958 429.083 993.156 429.875C994.76 431.063 996.76 433.635 996.76 435.615C996.563 438 994.563 441.167 991.76 442.75C986.958 445.521 976.563 444.135 967.563 443.938C956.167 443.938 942.771 443.938 929.177 441.365C912.573 438.198 891.177 432.25 875.781 424.531C862.583 417.792 852.385 401.156 841.594 399.365C833.594 397.979 825.594 404.719 819 405.906C813.802 406.896 810.802 407.688 805 406.896C795.406 405.906 778.01 399.76 766.813 395.208C757.417 391.646 751.01 388.677 741.615 383.125C728.021 375 703.625 357.375 694.229 349.25C690.031 345.292 690.229 343.51 685.625 339.948C674.833 331.229 631.438 310.823 624.646 304.688C623.042 303.104 622.448 302.313 622.24 301.115C621.844 299.729 622.042 297.948 622.646 296.76C623.24 295.573 624.646 294.385 625.844 293.99C627.24 293.396 630.24 293.99 630.24 293.99Z"/>
</mask>
<g mask="url(#mask13_0_1)">
<path fill="black" d="M614.24 286.062H1005.24V452.062H614.24V286.062Z"/>
</g>
</g>
<mask height="11" width="12" y="371" x="339" maskUnits="userSpaceOnUse" style="mask-type:luminance" id="mask14_0_1">
<path fill="white" d="M339.208 371.708H350.562V381.333H339.208V371.708Z"/>
</mask>
<g mask="url(#mask14_0_1)">
<mask height="11" width="12" y="371" x="339" maskUnits="userSpaceOnUse" style="mask-type:luminance" id="mask15_0_1">
<path fill="white" d="M350.5 375.198C345.51 383.125 340.708 381.74 339.708 379.958C338.708 378.375 339.51 373.417 341.104 372.229C342.708 371.042 349.104 372.625 349.104 372.625"/>
</mask>
<g mask="url(#mask15_0_1)">
<path fill="black" d="M331.708 364.312H358.667V390.26H331.708V364.312Z"/>
</g>
</g>
<mask height="26" width="29" y="363" x="333" maskUnits="userSpaceOnUse" style="mask-type:luminance" id="mask16_0_1">
<path fill="white" d="M333.365 363.646H361.323V388.146H333.365V363.646Z"/>
</mask>
<g mask="url(#mask16_0_1)">
<mask height="26" width="29" y="363" x="333" maskUnits="userSpaceOnUse" style="mask-type:luminance" id="mask17_0_1">
<path fill="white" d="M357.906 375.198C338.51 388.083 335.312 385.896 334.104 384.51C333.312 383.323 333.312 381.74 333.708 380.354C334.104 378.771 335.708 376.198 337.51 375.802C339.51 375 343.708 376.198 345.104 377.583C346.302 378.969 346.906 381.938 346.104 383.521C345.302 385.5 341.906 387.885 339.708 388.083C337.906 388.083 335.51 386.292 334.51 385.104C333.708 383.917 333.312 382.531 333.51 381.146C334.104 378.969 336.708 376.396 338.906 374.208C341.906 371.24 347.302 367.083 350.5 365.302C352.302 364.313 353.708 363.719 355.302 363.719C356.906 363.917 359.302 365.302 360.104 366.49C361.104 367.677 361.5 369.26 361.104 370.646C360.906 372.229 357.906 375.198 357.906 375.198Z"/>
</mask>
<g mask="url(#mask17_0_1)">
<path fill="black" d="M325.51 355.792H369.177V396H325.51V355.792Z"/>
</g>
</g>
<mask height="200" width="196" y="529" x="235" maskUnits="userSpaceOnUse" style="mask-type:luminance" id="mask18_0_1">
<path fill="white" d="M235.49 529.74H430.667V728.458H235.49V529.74Z"/>
</mask>
<g mask="url(#mask18_0_1)">
<mask height="199" width="196" y="530" x="235" maskUnits="userSpaceOnUse" style="mask-type:luminance" id="mask19_0_1">
<path fill="white" d="M366.302 724.427C285.917 677.479 262.323 641.823 250.531 621.031C242.927 607.948 238.531 595.865 236.729 586.563C235.531 580.417 235.729 575.865 236.729 570.708C237.531 565.76 239.333 560.417 241.729 555.854C244.125 551.302 247.531 546.938 251.323 543.375C255.125 539.813 259.729 536.844 264.521 534.656C269.323 532.479 274.719 530.896 279.917 530.302C285.115 529.906 290.719 530.104 295.719 531.292C300.917 532.479 305.917 534.458 310.51 537.042C314.917 539.813 319.115 543.375 322.51 547.344C325.906 551.302 328.708 556.052 330.708 560.813C332.708 565.563 333.906 571.104 334.104 576.26C334.312 581.406 333.708 586.76 332.312 591.906C330.906 596.865 328.51 601.813 325.708 606.167C322.708 610.333 318.917 614.292 314.708 617.458C310.51 620.635 305.719 623.208 300.719 624.792C295.719 626.573 290.115 627.365 284.917 627.365C279.719 627.365 274.323 626.375 269.323 624.792C264.323 623.208 259.521 620.635 255.323 617.458C251.125 614.292 247.323 610.333 244.333 605.969C241.531 601.615 239.125 596.667 237.729 591.708C236.333 586.76 235.729 581.208 236.135 576.063C236.333 570.906 237.531 565.563 239.531 560.615C241.531 555.854 244.333 551.104 247.729 547.146C251.125 543.177 255.323 539.615 259.927 537.042C264.323 534.458 269.521 532.281 274.719 531.292C279.719 530.104 285.323 529.906 290.521 530.5C295.719 530.896 301.115 532.479 305.719 534.656C310.51 536.844 315.115 540.01 318.917 543.573C322.708 547.146 324.708 550.51 328.51 556.052C335.104 566.156 343.51 586.76 353.104 599.833C362.5 612.51 374.104 625.188 385.094 633.313C394.094 639.844 406.292 642.615 412.292 646.781C416.094 649.552 417.687 651.135 420.292 654.5C423.687 659.26 428.083 667.177 429.49 674.115C430.687 681.042 430.49 688.969 428.292 695.708C426.292 702.438 421.083 709.969 417.292 714.521C414.49 717.688 412.49 719.281 408.687 721.26C403.49 724.031 394.896 727.396 387.896 727.99C380.896 728.583 366.302 724.427 366.302 724.427Z"/>
</mask>
<g mask="url(#mask19_0_1)">
<path fill="black" d="M228.135 522.375H437.49V735.823H228.135V522.375Z"/>
</g>
</g>
<mask height="29" width="29" y="356" x="545" maskUnits="userSpaceOnUse" style="mask-type:luminance" id="mask20_0_1">
<path fill="white" d="M545.656 356.875H573.281V384.844H545.656V356.875Z"/>
</mask>
<g mask="url(#mask20_0_1)">
<mask height="29" width="29" y="356" x="545" maskUnits="userSpaceOnUse" style="mask-type:luminance" id="mask21_0_1">
<path fill="white" d="M573.25 366.688C573.25 375.406 572.25 377.781 570.854 379.365C569.458 381.146 567.656 382.531 565.656 383.521C563.656 384.313 561.26 384.906 559.052 384.708C556.854 384.51 554.458 383.917 552.656 382.729C550.854 381.542 549.063 379.76 547.865 377.979C546.656 376.198 546.063 373.813 545.865 371.635C545.656 369.458 546.26 367.083 547.063 365.104C548.063 363.125 549.458 361.333 551.26 359.948C552.854 358.563 555.26 357.573 557.26 357.177C559.458 356.781 561.854 356.979 564.052 357.573C566.052 358.167 569.854 361.135 569.854 361.135"/>
</mask>
<g mask="url(#mask21_0_1)">
<path fill="black" d="M537.865 349.25H581.583V392.635H537.865V349.25Z"/>
</g>
</g>
<mask height="29" width="29" y="327" x="652" maskUnits="userSpaceOnUse" style="mask-type:luminance" id="mask22_0_1">
<path fill="white" d="M652.833 327.167H680.458V355.125H652.833V327.167Z"/>
</mask>
<g mask="url(#mask22_0_1)">
<mask height="29" width="29" y="327" x="652" maskUnits="userSpaceOnUse" style="mask-type:luminance" id="mask23_0_1">
<path fill="white" d="M680.427 336.969C680.427 345.688 679.427 348.063 678.031 349.646C676.635 351.438 674.833 352.823 672.833 353.813C670.833 354.604 668.427 355.198 666.229 355C664.031 354.802 661.635 354.208 659.833 353.021C658.031 351.833 656.24 350.042 655.031 348.26C653.833 346.479 653.24 344.104 653.031 341.927C652.833 339.75 653.438 337.365 654.24 335.385C655.24 333.406 656.635 331.625 658.438 330.24C660.031 328.854 662.438 327.865 664.438 327.469C666.635 327.073 669.031 327.271 671.229 327.865C673.229 328.458 677.031 331.427 677.031 331.427"/>
</mask>
<g mask="url(#mask23_0_1)">
<path fill="black" d="M645.042 319.542H688.76V362.917H645.042V319.542Z"/>
</g>
</g>
<mask height="39" width="47" y="376" x="733" maskUnits="userSpaceOnUse" style="mask-type:luminance" id="mask24_0_1">
<path fill="white" d="M733.177 376.073H779.656V414.729H733.177V376.073Z"/>
</mask>
<g mask="url(#mask24_0_1)">
<mask height="39" width="47" y="376" x="733" maskUnits="userSpaceOnUse" style="mask-type:luminance" id="mask25_0_1">
<path fill="white" d="M751.208 409.865C733.219 394.615 731.615 384.906 734.417 380.948C737.021 377.188 746.813 375.802 752.615 376.396C757.813 376.792 763.208 380.552 767.615 383.521C771.604 386.094 776.208 389.469 778.01 393.031C779.604 396 779.802 399.969 779.406 402.542C779.208 404.323 778.813 405.51 777.813 407.094C776.406 409.073 773.406 412.25 770.604 413.438C767.813 414.625 764.01 415.021 761.01 414.229C758.208 413.635 754.813 411.052 753.01 409.271C751.615 407.885 751.01 406.698 750.417 405.115C749.813 402.542 749.615 397.979 750.219 395.406C750.615 393.625 751.01 392.635 752.208 391.052C754.01 389.271 757.615 386.49 760.01 385.5C761.813 384.906 763.01 384.708 764.813 384.906C767.406 385.104 771.604 386.094 774.01 388.083C776.406 389.865 778.406 393.031 779.208 396C780.01 398.969 779.604 402.74 778.604 405.51C777.406 408.281 774.813 411.25 772.208 412.646C769.406 414.229 765.208 414.625 762.615 414.625C760.813 414.427 760.01 414.031 758.01 413.24C753.615 411.25 737.417 404.323 737.813 401.354C738.021 399.167 750.813 400.167 753.208 396.594C756.01 392.833 749.615 379.958 752.01 378.375C754.615 376.792 766.01 384.708 769.406 388.677C771.813 391.646 773.01 394.813 773.01 397.979C773.208 400.958 771.406 404.917 769.813 407.292C768.208 409.073 766.208 410.26 764.208 411.25C762.208 412.052 759.615 412.25 757.615 412.052C755.417 411.844 751.208 409.865 751.208 409.865Z"/>
</mask>
<g mask="url(#mask25_0_1)">
<path fill="black" d="M726.417 368.469H787.677V422.542H726.417V368.469Z"/>
</g>
</g>
<mask height="19" width="33" y="375" x="746" maskUnits="userSpaceOnUse" style="mask-type:luminance" id="mask26_0_1">
<path fill="white" d="M746.302 375.5H778.344V393.073H746.302V375.5Z"/>
</mask>
<g mask="url(#mask26_0_1)">
<mask height="19" width="33" y="375" x="746" maskUnits="userSpaceOnUse" style="mask-type:luminance" id="mask27_0_1">
<path fill="white" d="M767.208 390.656C746.219 378.375 748.01 376.396 749.813 375.802C752.813 374.802 760.01 377.188 764.615 379.167C769.406 381.146 776.406 385.302 777.813 387.885C778.406 389.073 778.208 390.26 777.813 391.25C777.208 392.042 775.813 392.833 775.01 393.031C774.01 393.031 772.406 392.438 771.813 391.646C771.208 390.854 770.813 389.271 771.208 388.479C771.813 387.281 774.604 385.896 775.813 386.094C776.813 386.49 778.406 388.677 778.208 389.667C778.01 390.854 775.813 392.833 774.208 393.031C771.406 393.031 767.615 387.688 763.406 385.896C758.813 383.917 749.813 383.521 747.615 381.74C746.813 381.146 746.417 380.552 746.417 379.76C746.615 378.573 748.615 376.198 750.615 375.802C754.417 375.198 767.208 382.333 769.813 385.302C771.01 386.688 771.406 388.281 771.01 389.271C770.604 390.063 767.208 390.656 767.208 390.656Z"/>
</mask>
<g mask="url(#mask27_0_1)">
<path fill="black" d="M738.417 367.875H786.229V400.958H738.417V367.875Z"/>
</g>
</g>
<mask height="18" width="33" y="366" x="389" maskUnits="userSpaceOnUse" style="mask-type:luminance" id="mask28_0_1">
<path fill="white" d="M389.948 366.76H421.094V383.073H389.948V366.76Z"/>
</mask>
<g mask="url(#mask28_0_1)">
<mask height="18" width="32" y="366" x="390" maskUnits="userSpaceOnUse" style="mask-type:luminance" id="mask29_0_1">
<path fill="white" d="M394.698 369.854C415.687 377.385 416.292 378.771 416.094 379.76C415.687 380.75 414.292 382.333 412.49 382.531C408.49 383.125 393.49 376.594 391.292 373.021C390.094 371.438 390.094 368.865 391.292 367.875C392.896 366.292 399.094 366.688 403.292 367.677C408.49 368.865 417.292 374.208 419.687 376.792C420.687 377.781 421.083 378.771 421.083 379.76C420.885 380.948 419.292 382.729 418.292 382.927C417.094 383.323 414.885 382.135 414.292 381.146C413.885 380.354 413.885 378.771 414.292 377.979C414.885 376.99 416.094 376 417.094 376C418.292 376 420.49 377.188 420.885 378.375C421.292 379.365 420.49 381.74 419.687 382.333C418.885 383.125 417.687 383.125 416.292 382.927C412.885 382.333 404.896 375.198 400.292 374.01C397.094 373.021 393.698 374.406 391.896 373.615C390.896 373.021 390.094 371.833 390.094 370.844C389.896 369.854 390.292 368.469 391.292 367.875C392.292 366.885 394.698 366.688 397.094 367.083C401.49 367.875 411.885 373.219 414.49 376.198C415.687 377.781 416.292 379.563 415.885 380.552C415.292 381.542 413.49 382.333 411.49 382.531C407.49 382.531 394.896 377.979 392.5 375.198C391.5 374.01 391.094 372.229 391.698 371.438C392.094 370.448 394.698 369.854 394.698 369.854Z"/>
</mask>
<g mask="url(#mask29_0_1)">
<path fill="black" d="M382.094 359.156H429.062V391.052H382.094V359.156Z"/>
</g>
</g>
<mask height="6" width="7" y="370" x="342" maskUnits="userSpaceOnUse" style="mask-type:luminance" id="mask30_0_1">
<path fill="white" d="M342.698 370.948H348.354V375.865H342.698V370.948Z"/>
</mask>
<g mask="url(#mask30_0_1)">
<mask height="5" width="7" y="371" x="342" maskUnits="userSpaceOnUse" style="mask-type:luminance" id="mask31_0_1">
<path fill="white" d="M348.302 372.823C345.906 376.792 343.51 376 342.906 375.198C342.51 374.406 342.906 371.833 343.708 371.24C344.51 370.646 347.708 371.438 347.708 371.438"/>
</mask>
<g mask="url(#mask31_0_1)">
<path fill="black" d="M334.906 363.323H356.479V384.313H334.906V363.323Z"/>
</g>
</g>
<mask height="18" width="21" y="366" x="330" maskUnits="userSpaceOnUse" style="mask-type:luminance" id="mask32_0_1">
<path fill="white" d="M330.135 366.865H350.562V383.896H330.135V366.865Z"/>
</mask>
<g mask="url(#mask32_0_1)">
<mask height="18" width="21" y="366" x="330" maskUnits="userSpaceOnUse" style="mask-type:luminance" id="mask33_0_1">
<path fill="white" d="M349.708 372.427C332.906 383.917 330.906 382.729 330.312 381.74C329.906 380.75 330.708 378.573 331.708 377.979C332.51 377.385 334.906 377.583 335.708 378.177C336.51 378.771 336.906 380.156 336.708 381.146C336.708 381.938 335.906 383.323 335.104 383.719C334.104 384.115 331.708 383.719 331.104 382.927C330.312 382.135 330.51 379.958 331.312 378.177C333.104 375 341.906 368.865 345.51 367.677C347.5 366.885 349.708 366.688 350.302 367.479C351.104 368.271 349.708 372.427 349.708 372.427Z"/>
</mask>
<g mask="url(#mask33_0_1)">
<path fill="black" d="M322.312 359.552H358.51V391.844H322.312V359.552Z"/>
</g>
</g>
<mask height="27" width="34" y="361" x="327" maskUnits="userSpaceOnUse" style="mask-type:luminance" id="mask34_0_1">
<path fill="white" d="M327.062 361.25H360.531V387.531H327.062V361.25Z"/>
</mask>
<g mask="url(#mask34_0_1)">
<mask height="27" width="34" y="361" x="327" maskUnits="userSpaceOnUse" style="mask-type:luminance" id="mask35_0_1">
<path fill="white" d="M331.708 378.375C354.906 362.521 356.302 361.729 357.5 361.927C358.698 362.125 360.104 363.719 360.302 364.708C360.698 365.5 360.302 366.49 359.5 367.677C356.698 371.635 337.708 386.49 332.51 387.083C330.51 387.281 328.51 386.49 328.115 385.5C327.708 384.313 330.104 380.75 329.906 380.552C329.906 380.552 328.115 384.51 327.708 384.51C327.313 384.313 326.51 380.156 327.708 377.781C330.708 372.823 350.302 361.135 354.906 361.333C356.698 361.333 358.104 362.719 358.5 363.917C358.906 364.906 358.104 367.281 357.104 367.875C355.906 368.469 352.5 367.677 351.906 366.688C351.5 365.698 352.5 362.323 353.5 361.729C354.5 361.135 357.906 362.323 358.302 363.521C358.906 364.51 358.5 366.094 357.302 367.677C354.302 371.833 332.104 384.115 331.313 383.323C331.104 382.927 333.51 379.958 333.708 379.958C334.104 380.156 333.51 386.292 332.51 387.083C331.708 387.688 329.906 387.281 329.313 386.688C328.313 386.094 327.51 384.51 327.708 383.125C328.313 380.552 333.313 377.385 337.313 374.208C342.302 370.25 352.906 361.729 356.698 361.927C358.5 361.927 360.104 363.521 360.302 364.708C360.698 365.698 360.104 366.885 358.906 368.271C355.708 371.833 340.906 381.542 335.906 383.125C333.708 383.917 331.708 384.115 331.104 383.323C330.313 382.531 331.708 378.375 331.708 378.375Z"/>
</mask>
<g mask="url(#mask35_0_1)">
<path fill="black" d="M319.708 353.417H368.531V395.208H319.708V353.417Z"/>
</g>
</g>
<mask height="259" width="700" y="623" x="253" maskUnits="userSpaceOnUse" style="mask-type:luminance" id="mask36_0_1">
<path fill="white" d="M253.646 623.531H952.604V881.375H253.646V623.531Z"/>
</mask>
<g mask="url(#mask36_0_1)">
<mask height="257" width="699" y="624" x="254" maskUnits="userSpaceOnUse" style="mask-type:luminance" id="mask37_0_1">
<path fill="white" d="M306.979 637.469C338.969 684.615 347.167 690.552 353.365 699.073C359.365 707.594 361.365 718.885 368.365 726.208C374.958 733.344 385.365 737.5 393.958 742.448C402.552 747.208 411.156 750.573 419.75 755.323C428.552 760.281 436.552 766.812 445.948 771.969C456.146 777.708 468.146 783.458 478.938 787.812C488.542 791.969 495.938 794.552 507.333 797.917C523.729 802.865 551.125 810.792 567.917 813.365C579.719 815.146 585.51 815.74 598.115 814.948C620.104 813.167 662.094 804.25 688.094 796.531C709.083 790.583 727.479 780.49 743.479 775.729C755.073 772.167 764.271 771.771 774.073 768.604C783.469 765.625 793.073 763.844 801.062 757.708C810.469 750.573 816.062 737.5 825.458 726.208C837.656 711.948 855.656 694.719 868.25 679.458C879.25 666.188 888.25 647.573 897.042 640.24C902.042 636.083 906.448 634.302 911.438 633.312C916.635 632.115 923.24 632.917 927.635 633.708C930.635 634.5 932.438 635.094 935.031 636.875C938.635 639.25 943.833 643.406 946.833 647.771C949.635 652.125 951.438 657.677 952.031 662.823C952.438 667.969 951.833 673.125 949.438 678.667C946.229 686 940.24 692.729 931.042 701.646C913.844 718.479 868.25 752.156 848.458 765.427C838.062 772.562 832.656 775.531 823.458 779.896C813.469 784.844 802.865 788.604 790.469 792.969C774.677 798.312 752.281 805.448 735.885 809.208C722.688 812.375 716.885 813.958 699.885 815.344C658.896 818.521 544.927 821.49 488.135 813.958C448.948 808.812 412.75 795.74 390.365 788.208C377.958 784.052 371.365 782.865 362.562 776.719C351.771 769.198 337.167 753.146 332.177 743.844C329.177 738.292 328.969 733.146 328.771 728.979C328.573 726.01 329.177 723.833 329.771 721.458C330.375 719.083 330.969 716.896 332.573 714.323C334.771 710.958 339.573 705.802 342.969 703.229C345.167 701.448 346.969 700.656 349.771 699.865C353.771 698.677 359.969 697.49 364.969 698.281C369.76 698.875 375.167 701.052 379.167 703.823C383.156 706.604 389.76 714.323 388.958 715.312C387.958 716.5 360.563 702.833 361.167 701.052C361.771 699.073 391.156 703.625 399.562 706C403.958 707.198 406.156 708.385 409.156 710.365C411.958 712.146 414.552 714.719 416.75 717.292C418.75 720.073 420.552 723.24 421.75 726.406C422.75 729.573 423.354 733.146 423.354 736.708C423.552 740.073 422.948 743.646 421.75 746.812C420.75 749.979 419.156 753.344 416.958 755.927C414.958 758.698 412.354 761.271 409.552 763.052C406.76 765.031 403.354 766.615 400.156 767.615C396.76 768.406 393.156 768.802 389.76 768.802C386.365 768.604 382.76 767.812 379.562 766.615C376.365 765.427 373.167 763.448 370.562 761.271C367.969 759.094 365.563 756.323 363.771 753.542C361.969 750.573 360.563 747.208 359.771 744.042C359.167 740.667 358.771 737.104 359.167 733.74C359.563 730.365 360.563 726.802 361.969 723.635C363.365 720.667 365.365 717.49 367.76 715.115C369.969 712.542 372.969 710.365 375.958 708.781C378.958 707.198 382.365 706 385.76 705.406C389.156 704.812 392.76 704.812 396.156 705.406C399.562 705.802 403.156 707 406.156 708.583C409.156 710.167 412.156 712.344 414.354 714.719C416.75 717.094 418.958 720.271 420.354 723.24C421.75 726.406 422.75 729.771 423.156 733.146C423.552 736.51 423.552 740.073 422.75 743.448C421.948 746.813 420.75 750.177 418.958 753.146C417.156 756.125 414.958 758.896 412.354 761.073C409.76 763.25 406.552 765.031 403.354 766.417C400.156 767.615 396.562 768.406 393.156 768.802C389.76 769 387.365 769 382.76 767.615C372.167 764.635 339.375 752.75 332.177 743.844C328.375 739.083 328.573 733.938 328.771 728.979C328.771 724.229 330.177 718.688 332.573 714.323C334.969 710.167 338.771 706 342.969 703.229C346.969 700.458 352.365 698.677 357.167 698.083C362.167 697.688 368.365 698.875 372.365 700.062C375.167 701.052 376.76 701.646 379.167 703.823C383.156 707.396 386.562 717.094 392.562 721.854C399.354 727 407.958 728.583 418.75 732.354C435.552 737.896 465.542 747.01 484.74 750.573C499.333 753.344 506.333 753.938 523.729 754.531C558.323 755.927 645.906 752.75 679.896 750.573C696.094 749.583 702.688 749.583 716.083 746.812C734.083 743.25 761.073 734.729 777.875 728.188C790.073 723.24 796.271 720.469 808.26 712.938C829.062 700.26 874.25 666.385 887.448 653.115C892.844 647.771 893.844 643.208 897.042 640.24C899.24 638.063 901.448 637.073 903.844 635.885C906.24 634.698 908.438 633.708 911.438 633.312C915.844 632.51 922.635 632.313 927.635 633.708C932.635 635.094 937.833 638.063 941.635 641.625C945.438 645.198 948.635 650.937 950.229 654.896C951.438 657.875 951.833 659.854 952.031 662.823C952.031 667.177 952.031 672.333 949.438 678.667C945.229 689.958 932.042 707.99 920.844 722.25C908.24 737.896 888.646 754.729 877.052 768.604C868.25 779.094 863.854 788.406 855.656 796.927C847.26 805.646 837.656 814.552 827.26 820.5C816.865 826.24 806.26 828.417 793.073 832.385C775.677 837.531 748.083 842.094 731.885 848.031C720.281 852.188 713.083 858.333 703.292 861.698C693.49 865.063 683.292 867.448 672.896 868.438C662.5 869.625 651.302 866.458 641.302 868.24C631.5 870.021 623.302 876.75 613.708 878.938C603.906 880.917 593.51 881.115 583.312 880.719C573.115 880.521 565.125 879.729 552.521 877.146C531.729 872.99 494.531 862.885 470.542 853.979C450.75 846.646 431.948 837.531 417.958 829.417C407.76 823.271 401.958 816.531 392.958 811.188C383.562 805.448 371.969 802.469 362.365 796.531C352.771 790.583 343.375 782.865 335.375 775.531C327.771 768.604 322.177 762.854 314.781 753.542C304.375 740.469 290.385 719.083 279.99 702.833C270.792 688.177 258.385 668.76 255.385 660.646C254.396 657.479 254.188 656.479 254.188 653.906C254.188 650.344 254.792 644.594 256.594 640.635C258.385 636.677 262.187 632.313 264.99 629.938C266.99 628.156 268.385 627.365 270.792 626.375C274.385 625.187 280.583 624 284.188 624C286.979 624 288.781 624.396 290.979 625.188C293.177 625.781 295.177 626.375 297.385 627.958C300.385 629.937 306.979 637.469 306.979 637.469Z"/>
</mask>
<g mask="url(#mask37_0_1)">
<path fill="black" d="M246.188 616.073H960.062V888.833H246.188V616.073Z"/>
</g>
</g>
<mask height="131" width="480" y="765" x="360" maskUnits="userSpaceOnUse" style="mask-type:luminance" id="mask38_0_1">
<path fill="white" d="M360.146 765.344H839.135V895.26H360.146V765.344Z"/>
</mask>
<g mask="url(#mask38_0_1)">
<mask height="131" width="479" y="765" x="360" maskUnits="userSpaceOnUse" style="mask-type:luminance" id="mask39_0_1">
<path fill="white" d="M395.396 776.396C502 810.396 509.198 809.396 519.198 812.198C530.396 815.396 542.396 824 553.604 826.604C563.198 828.802 571.604 826.198 582 828.198C595.198 831 614.396 846.604 626 844.198C635.198 842.396 636.802 830 647.396 823.802C666.604 812.396 711.396 805.198 738.396 794.802C761 786 787 769.198 799.198 766.396C804.198 765.396 806.604 765.802 810.198 766.396C813.604 767 817.396 768.198 820.604 769.802C823.604 771.396 826.802 773.802 829.198 776.198C831.802 778.802 834 782 835.396 785.198C837 788.604 838 792.198 838.396 795.802C838.802 799.396 838.802 803.198 838 806.604C837.198 810.198 835.802 813.802 834 816.802C832.198 820 829.802 822.802 827 825.198C824.396 827.604 821 829.604 817.802 830.802C814.396 832.198 810.604 833.198 807.198 833.396C803.604 833.604 799.802 833.198 796.198 832.198C792.802 831.396 789.396 829.802 786.396 827.802C783.396 825.802 780.604 823.198 778.396 820.396C776.198 817.396 774.396 814.198 773.198 810.802C772 807.396 771.396 803.604 771.198 800C771.198 796.396 771.802 792.604 773 789.198C774 785.802 775.802 782.396 778 779.604C780.198 776.604 782.802 774 785.802 772C788.802 770 792.198 768.198 795.604 767.396C799.198 766.396 803 765.802 806.604 766C810.198 766.198 813.802 767 817.198 768.198C820.604 769.604 823.802 771.604 826.604 773.802C829.396 776.198 831.802 779 833.802 782C835.604 785.198 837 788.604 837.802 792.198C838.604 795.604 838.802 799.396 838.604 803C838.198 806.604 837.198 810.396 835.604 813.604C834.198 816.802 832.198 820 829.604 822.604C827.198 825.198 825.198 826.802 821 829.396C812.396 834.604 791.802 844.604 779 850.198C769 854.396 763.396 856.396 751.604 860.396C730.396 867.396 685.396 880.396 662.198 886.396C647.604 890.198 639.802 893.198 626.198 894.396C608.802 896 587.604 895.396 566 891.802C540 887.396 510.802 876 481.198 866.396C447.802 855.604 389.198 836.198 376 829.604C372.802 828 372.198 827.604 370.396 825.802C367.802 823.198 364 818.198 362.396 814.802C361.396 812.396 361 810.802 360.802 808.198C360.396 804.396 361.198 798.198 362.198 794.604C363 792 363.604 790.604 365.198 788.396C367.604 785.396 371.396 781.396 375.396 779.198C379.198 777.198 384.802 776 388.604 775.802C391.198 775.604 395.396 776.396 395.396 776.396Z"/>
</mask>
<g mask="url(#mask39_0_1)">
<path fill="black" d="M352.802 758H846.469V902.604H352.802V758Z"/>
</g>
</g>
<mask height="464" width="712" y="305" x="244" maskUnits="userSpaceOnUse" style="mask-type:luminance" id="mask40_0_1">
<path fill="white" d="M244.479 305.281H955.198V768.667H244.479V305.281Z"/>
</mask>
<g mask="url(#mask40_0_1)">
<mask height="464" width="710" y="305" x="245" maskUnits="userSpaceOnUse" style="mask-type:luminance" id="mask41_0_1">
<path fill="white" d="M245 544.604C246.198 505.604 247.802 494.802 249.802 484.802C251.604 475.396 253.604 466.604 256.604 457.396C259.396 448 264 434.604 267.198 429C268.802 426.396 271 424.604 271.396 423.802C271.604 423.604 271.396 423.604 271.604 423.396C272.396 421.802 284.604 403.802 292.396 397.604C299.198 392.198 314.396 386.802 314.604 386.802C314.802 386.604 316.802 387.198 317.802 386.802C319.396 386.396 321 384.604 323 383.802C325 383 327.198 382.198 329.396 381.802C331.802 381.396 334 381.198 336.396 381.396C338.604 381.604 342 382.396 343 382.802C343.396 382.802 343.396 383 343.604 383C344 382.802 345 380 345 380C345 379.802 346.802 377.802 347.604 376.802C348.396 375.604 350.198 373.604 350.198 373.396C350.198 373.396 352.396 371.802 353.396 371C354.604 370.198 356.604 368.396 356.802 368.396C356.802 368.396 359.198 367.396 360.604 366.802C361.802 366.198 364.198 365.198 364.396 365.198C364.396 365.198 367 364.604 368.396 364.396C369.802 364.198 372.396 363.802 372.396 363.802C372.604 363.802 375.198 364 376.604 364C378 364.198 380.604 364.396 380.802 364.396C381 364.604 389 375.198 395.198 378.198C402.604 381.802 414 380.396 423.198 382.604C432.604 384.802 446.198 389 451 391.396C453 392.198 453.198 393.396 454.802 393.802C457.198 394.198 460.604 392.802 464.802 391.802C471.802 389.802 484 385.396 493.198 382.396C502 379.604 514.396 376.396 519 374.198C520.604 373.396 521.198 372.802 522.198 372.198C523.396 371.396 525.604 370 525.604 370C525.802 370 528.198 369.198 529.604 368.802C530.802 368.198 533.396 367.396 533.396 367.396C533.396 367.396 536.198 367.198 537.396 367.198C538.604 367 540.198 367 540.802 366.802H541.604C541.604 366.802 544.198 367.198 545.604 367.396C546.802 367.604 549.604 368 549.604 368C549.604 368.198 551.802 369.604 552.396 369.198C552.802 369.198 552.802 368 552.802 368C552.802 368 554.396 365.802 555.198 364.604C556 363.396 557.396 361.198 557.396 361.198C557.604 361.198 557.604 361.198 557.604 361.198C557.604 361.198 559.604 359.396 560.604 358.396C561.604 357.604 563.604 355.802 563.604 355.802C563.604 355.604 566 354.396 567.198 353.802C568.396 353.198 570.802 351.802 570.802 351.802C571.198 351.604 593.396 326.604 599.604 322.396C602 320.802 603.802 321.198 605 320.198C606.198 319.396 607.198 317.198 607.198 317C607.198 317 609.198 315.198 610.396 314.396C611.396 313.396 613.396 311.604 613.396 311.604C613.396 311.604 615.802 310.396 617 309.604C618.396 309 620.604 307.802 620.802 307.802C620.802 307.802 623.396 307.198 624.802 306.802C626.198 306.396 628.802 305.802 628.802 305.802C628.802 305.802 631.604 305.802 633 305.802C634.198 305.802 637 305.802 637 305.802C637.198 305.802 639.802 306.396 641 306.802C642.396 307.198 645 307.802 645 307.802C645.198 307.802 647.604 309 648.802 309.802C650 310.396 652.396 311.604 652.396 311.604C652.396 311.604 654.396 313.396 655.396 314.396C656.604 315.396 658.604 317 658.604 317.198C658.604 317.198 660.198 319.396 661 320.604C661.802 321.604 663.198 323.802 663.198 324C663.198 324 663.802 326.396 664.198 326.604C664.396 326.802 664.604 326.604 665 326.604C665.802 326.604 669 326.802 669 326.802C669.198 326.802 671.604 327.396 673 327.802C674.198 328.198 676.802 328.802 676.802 329C677 329 679.198 330.198 680.396 330.802C681.604 331.604 684 332.802 684 332.802C684 333 686 334.802 687 335.604C688 336.604 689.802 338.396 690 338.396C690 338.396 691.396 340.802 692.198 341.802C692.802 342.802 692.802 343.396 694 344.604C697.198 348.396 717.198 362.198 716 364.604C715 366.802 692.802 359.604 691.396 360.604C691.198 360.802 691 361 691.198 361.396C692.396 363 713.802 363.802 724.198 368.396C735.198 373.396 744.396 386.604 755 391C764.198 395 773.802 394.802 783.198 396.198C793 397.802 806.604 398.198 812.604 400C815.604 401 815.802 403 818.802 403.396C825.604 404.396 842.198 394.396 853 396.802C864.604 399.198 874.604 414.802 885.604 420.396C895 425.396 905 426.198 914 430.198C923.198 434.198 934.396 436.604 940.198 443.802C946.604 451.802 947.604 466.396 949.604 477.396C951.396 487.604 951.802 497.604 952.396 507.604C953.198 517.802 953.396 527.604 953.604 538C953.802 549 954.396 561.396 953.802 572.198C953.198 582.198 952.396 591.198 950.802 600.604C949.198 609.802 947.802 619 944.198 627.802C940.604 637.396 935.396 647.604 928.802 655.604C922 663.604 913 669.802 904.198 675.802C895.396 681.802 885 686.198 875.802 691.802C866.802 697.396 858.604 703.604 849.802 709.198C841 714.604 832.396 719.802 822.802 725C812.604 730.396 800.396 735.198 790.396 740.396C781.396 744.802 774 749.802 765.198 753.802C756 758 746 762.396 736.198 764.802C726.802 767 717.198 767.396 707 767.802C696.198 768.396 685 767.802 673.396 767.802C661 768 645.604 768.802 635 768.396C627.396 768.198 618.396 766.802 615.396 766.604C614.604 766.604 614.604 766.802 613.604 766.802C608.802 767 585.396 767.198 570.802 766.802C555.604 766.198 539 765.604 524.198 763.802C510.604 762.396 494.396 759.198 485.396 757.802C480.604 757 476.396 755.396 474.396 756C473.604 756.198 472.802 757.396 472.604 757.604C472.604 757.604 470.396 758.802 469.396 759.396C468.198 760 466 761.198 466 761.198C465.802 761.198 463.396 761.802 462.198 762.198C461 762.396 458.604 763.198 458.604 763.198C458.396 763.198 456 763.198 454.604 763.198C453.396 763.198 450.802 763.198 450.802 763.198C450.802 763.198 448.396 762.604 447 762.396C445.802 762 443.396 761.396 443.396 761.396C443.198 761.396 441 760.396 440 759.802C438.802 759.198 436.604 758 436.396 758C436.396 758 434.604 756.396 433.604 755.396C432.604 754.604 430.802 753 430.604 753C430.604 753 429.198 750.802 428.396 749.802C427.802 749 427.198 747.604 426.604 747.198C426.396 747 426.198 747.198 425.802 747C424.396 746.604 416 743.198 414.198 743.198C413.604 743.198 413.604 743.396 413.198 743.396C412.198 743.802 409.604 744.396 409.604 744.604C409.396 744.604 407 744.604 405.802 744.604C404.604 744.802 402 744.802 402 744.802C402 744.802 399.604 744.396 398.396 744C397.198 743.802 394.802 743.396 394.802 743.396C394.604 743.396 392.396 742.198 391.396 741.802C390.198 741.198 388 740.198 388 740.198C388 740.198 386 738.604 385 737.802C384 737 382.198 735.396 382.198 735.396C382.198 735.396 380.604 733.396 380 732.396C379.198 731.396 377.604 729.396 377.604 729.396C377.604 729.396 376.604 727.198 376.198 726C375.604 724.802 374.802 722.604 374.802 722.604C374.604 722.604 374.802 720 374.198 719C373.396 717.802 371.802 717.604 370.198 715.802C366 711.802 356.802 700.396 351.396 691.198C345.802 681.802 339.802 670.802 337.604 660.198C335.604 649.802 337.604 635 338.198 628.198C338.396 625.198 339.802 622.604 339 621.604C338.198 620.802 336.802 622 335.396 621.198C331 619 317.802 605.198 314.604 599C312.604 595.396 312.604 589.604 312.396 589.396C312.396 589.396 312.396 589.396 312.396 589.604C312.396 589.604 310 592.604 309.802 592.604C309.802 592.604 307.802 594.198 306.604 595C305.604 595.802 303.396 597.198 303.396 597.198C303.396 597.396 301 598.396 299.604 598.802C298.396 599.396 296 600.396 296 600.396C296 600.396 293.396 600.802 292 601C290.604 601 288.198 601.396 288 601.396C288 601.396 285.396 601.198 284 601.198C282.802 601 280.198 600.802 280 600.802C280 600.802 280 600.802 279.802 600.604C277.802 599.604 257 583.802 251.396 573.802C246.396 564.802 245 544.604 245 544.604Z"/>
</mask>
<g mask="url(#mask41_0_1)">
<path fill="black" d="M237 297.802H962.677V776.604H237V297.802Z"/>
</g>
</g>
<mask height="57" width="56" y="353" x="661" maskUnits="userSpaceOnUse" style="mask-type:luminance" id="mask42_0_1">
<path fill="white" d="M661.229 353.156H716.052V409.094H661.229V353.156Z"/>
</mask>
<g mask="url(#mask42_0_1)">
<mask height="57" width="56" y="353" x="661" maskUnits="userSpaceOnUse" style="mask-type:luminance" id="mask43_0_1">
<path fill="white" d="M716 372.802C716.198 390.396 714 395 711.396 398.396C708.802 401.802 704.802 404.802 700.802 406.604C696.802 408.396 692 409.396 687.604 409C683.396 408.802 678.604 407.396 674.802 405.198C671.198 402.802 667.604 399.396 665.396 395.604C663.198 392 661.604 387.198 661.396 382.802C661.198 378.396 662 373.604 663.802 369.604C665.604 365.604 668.604 361.802 672 359C675.604 356.396 680 354.396 684.396 353.604C688.604 352.802 693.604 353.198 697.604 354.396C701.802 355.802 709.198 361.396 709.198 361.396"/>
</mask>
<g mask="url(#mask43_0_1)">
<path fill="black" d="M653.396 345.604H725V417.198H653.396V345.604Z"/>
</g>
</g>
<mask height="58" width="56" y="353" x="670" maskUnits="userSpaceOnUse" style="mask-type:luminance" id="mask44_0_1">
<path fill="white" d="M670.427 353.948H725.531V410.167H670.427V353.948Z"/>
</mask>
<g mask="url(#mask44_0_1)">
<mask height="58" width="56" y="353" x="670" maskUnits="userSpaceOnUse" style="mask-type:luminance" id="mask45_0_1">
<path fill="white" d="M725.396 373.604C725.396 391.198 723.396 395.802 720.604 399.198C718 402.604 714 405.802 710.198 407.604C706.198 409.198 701.198 410.198 697 410C692.604 409.604 687.802 408.198 684.198 406C680.396 403.802 677 400.198 674.604 396.396C672.396 392.802 671 388 670.604 383.604C670.396 379.396 671.396 374.396 673 370.396C674.802 366.604 678 362.604 681.396 360C684.802 357.198 689.396 355.198 693.604 354.396C697.802 353.604 702.802 354 707 355.198C711.198 356.604 718.396 362.198 718.396 362.198"/>
</mask>
<g mask="url(#mask45_0_1)">
<path fill="black" d="M662.604 346.396H734.198V418H662.604V346.396Z"/>
</g>
</g>
<mask height="181" width="462" y="712" x="314" maskUnits="userSpaceOnUse" style="mask-type:luminance" id="mask46_0_1">
<path fill="white" d="M314.625 712.021H775.938V892.74H314.625V712.021Z"/>
</mask>
<g mask="url(#mask46_0_1)">
<mask height="181" width="462" y="712" x="314" maskUnits="userSpaceOnUse" style="mask-type:luminance" id="mask47_0_1">
<path fill="white" d="M358.604 745.802C412.198 780.604 435 791 449.198 799.396C459.198 805.396 465 813.198 474.396 816C483.604 818.604 495 814 505 815.396C515 816.802 523.802 822.396 534 824.396C544.802 826.396 555.604 827.198 568.802 827.198C586.396 827.198 612.396 822.198 630 821.802C643.396 821.604 652.396 824.802 665.396 823.396C681.802 821.802 707.604 813.604 719.802 809C726.198 806.604 729.198 803 734.198 801.802C739.396 800.802 746 801.396 750.396 802.198C753.396 803 755.198 803.604 757.802 805.396C761.604 807.802 766.802 812 769.604 816.396C772.604 820.802 774.396 826.396 775 831.604C775.396 836.802 774.604 842.802 772.604 847.604C770.604 852.396 768 857.396 763.198 860.604C756.396 865 744.604 863.802 733.198 867.396C717 872.604 693.198 887.802 675.604 890.604C661.396 892.802 647.604 891.396 635.802 888C625.198 884.604 618.802 877 607.396 871.802C592 864.802 568.396 857.604 550.604 852C535 847.198 521.396 845.198 506.396 840C490.198 834.198 472 825.802 457 818.198C444 811.802 432.198 805.604 421.396 798.198C411.396 791.604 401.604 783.802 394.198 776.396C388 770.396 381.604 763.396 378.802 758C377 754.396 376.396 751.396 376 748C375.604 744.604 375.802 741 376.604 737.604C377.198 734.198 378.604 731 380.396 728C382.198 725 384.396 722.198 387 720C389.604 717.802 392.802 716 396 714.802C399 713.396 402.604 712.604 406 712.396C409.396 712.198 413 712.604 416.396 713.604C419.604 714.396 423 716 425.802 717.802C428.604 719.802 431.198 722.198 433.198 725C435.396 727.802 437 731 438.198 734.198C439.198 737.396 439.802 741 439.802 744.396C439.802 747.802 439.198 751.396 438.198 754.604C437.198 757.802 435.396 761 433.396 763.802C431.198 766.396 428.604 769 425.802 770.802C423 772.802 419.802 774.396 416.396 775.198C413.198 776.198 409.604 776.604 406.198 776.396C402.802 776.198 399.198 775.396 396 774.198C392.802 773 389.802 771 387.198 768.802C384.604 766.604 382.198 764 380.396 761C378.604 758 377.396 754.802 376.604 751.396C375.802 748 375.604 744.396 376 741C376.396 737.604 377.396 734.198 378.802 731C380.198 728 382.198 725 384.604 722.396C386.802 720 389.802 717.802 392.802 716.198C395.802 714.604 399.198 713.396 402.604 712.802C406 712.198 409.604 712.198 413 712.802C416.396 713.396 419.198 714 422.802 716.198C428.396 719.396 434.604 727.604 441.396 733.198C449 739.198 457 745.396 466.604 751C477.604 757.396 491.198 763.604 504.198 768.802C517.604 774 532 778.396 545.198 781.802C557.604 785 567.198 784.396 581.396 788.604C603.604 795.396 644 823.802 664.198 823.604C675.802 823.604 682.198 814.604 691.802 811.396C701.198 808.198 711.198 806.396 720.802 804.802C730.198 803.198 748.802 801.198 748.802 802C749 802.604 720 809.802 719.802 809C719.604 808.396 730 803 734.198 801.802C737.198 801 739.198 800.802 742.198 801C746.604 801.396 753.198 802.802 757.802 805.396C762.396 807.802 766.802 812 769.604 816.396C772.604 820.802 774.198 827.198 775 831.604C775.396 834.604 775.396 836.604 774.802 839.802C773.802 844 771 851 768.604 854.604C767 857.198 765.802 858.802 763.198 860.604C759.198 863.396 753.604 865.396 746 868.198C732.198 873.604 710 882.802 686 886.802C652.198 892.604 587.604 892.604 560.802 891.604C548.198 891.198 544.604 890.802 533 888.604C511.802 884.802 471.802 875.396 446.396 865.604C424.802 857.396 408.198 847.396 389 836C368.396 823.802 338.396 803.396 327.198 793.604C322.396 789.604 319.802 786.802 317.802 783.604C316.396 781.396 315.802 779.802 315.198 777.198C314.604 773.604 314.396 767.198 315 763.604C315.396 761 316 759.396 317.198 757C319 753.802 322.396 749.198 326 746.604C329.604 744 334.396 742 338.802 741.396C343.198 740.802 348.802 741.604 352.396 742.604C355 743.396 358.604 745.802 358.604 745.802Z"/>
</mask>
<g mask="url(#mask47_0_1)">
<path fill="black" d="M307 704.396H783.562V899.604H307V704.396Z"/>
</g>
</g>
<mask height="105" width="66" y="400" x="258" maskUnits="userSpaceOnUse" style="mask-type:luminance" id="mask48_0_1">
<path fill="white" d="M258.656 400.854H323.344V504.177H258.656V400.854Z"/>
</mask>
<g mask="url(#mask48_0_1)">
<mask height="105" width="66" y="400" x="258" maskUnits="userSpaceOnUse" style="mask-type:luminance" id="mask49_0_1">
<path fill="white" d="M323.198 431C312.802 491.802 311.198 493.198 309 495.396C306.802 497.604 304 499.604 301.198 501C298.396 502.396 295.198 503.396 292.198 503.802C289 504.198 285.604 504.198 282.604 503.604C279.604 503 276.396 501.802 273.604 500.396C271 498.802 268.396 496.604 266.198 494.396C264.198 492 262.396 489.198 261.198 486.396C259.802 483.396 259 480.198 258.802 477.198C258.604 474 258.802 470.604 259.604 467.604C260.396 464.604 261.604 461.604 263.396 458.802C265 456.198 267.198 453.802 269.802 451.802C272.198 449.802 275 448.198 278 447.198C281 446 284.198 445.396 287.396 445.396C290.396 445.198 293.802 445.604 296.802 446.604C299.802 447.604 302.802 449 305.198 450.802C307.802 452.604 310.198 455 312 457.604C313.802 460 315.396 463 316.198 466C317.198 469 317.604 472.396 317.604 475.396C317.396 478.604 316.802 481.802 315.802 484.802C314.604 487.802 313 490.604 311 493.198C309 495.604 306.604 497.802 304 499.396C301.396 501.198 298.198 502.396 295.198 503.198C292.198 504 288.802 504.198 285.802 504C282.604 503.802 279.396 503 276.604 501.802C273.604 500.396 270.802 498.604 268.604 496.604C266.198 494.604 264 492 262.604 489.198C261 486.396 259.802 483.396 259.198 480.198C258.604 477.198 258.604 475.198 259 470.802C259.802 460.604 263.802 431.198 267.802 420.604C270 415.198 272.604 411.802 275 409C276.802 407 278 406 280.396 404.802C283.604 403.198 289 401.198 293.396 401C297.802 400.604 302.604 401.604 306.604 403.396C310.604 405.198 314.802 409 317.198 411.802C319 413.802 319.802 415.198 320.802 417.802C322 421.198 323.198 431 323.198 431Z"/>
</mask>
<g mask="url(#mask49_0_1)">
<path fill="black" d="M250.802 393H331.198V512.344H250.802V393Z"/>
</g>
</g>
<mask height="679" width="691" y="208" x="255" maskUnits="userSpaceOnUse" style="mask-type:luminance" id="mask50_0_1">
<path fill="white" d="M255.125 208.812H945.115V886.812H255.125V208.812Z"/>
</mask>
<g mask="url(#mask50_0_1)">
<mask height="679" width="690" y="208" x="255" maskUnits="userSpaceOnUse" style="mask-type:luminance" id="mask51_0_1">
<path fill="white" d="M599.958 208.812C409.51 208.812 255.125 360.615 255.125 547.875C255.125 735.135 409.51 886.938 599.958 886.938C790.417 886.938 944.802 735.135 944.802 547.875C944.802 360.615 790.417 208.812 599.958 208.812Z"/>
</mask>
<g mask="url(#mask51_0_1)">
<path stroke-width="12" stroke="white" d="M599.958 208.812C409.51 208.812 255.125 360.615 255.125 547.875C255.125 735.135 409.51 886.938 599.958 886.938C790.417 886.938 944.802 735.135 944.802 547.875C944.802 360.615 790.417 208.812 599.958 208.812Z"/>
</g>
</g>
<mask height="679" width="691" y="205" x="255" maskUnits="userSpaceOnUse" style="mask-type:luminance" id="mask52_0_1">
<path fill="white" d="M255.188 205.042H945.177V883.042H255.188V205.042Z"/>
</mask>
<g mask="url(#mask52_0_1)">
<mask height="679" width="690" y="205" x="255" maskUnits="userSpaceOnUse" style="mask-type:luminance" id="mask53_0_1">
<path fill="white" d="M600.021 205.042C409.573 205.042 255.188 356.854 255.188 544.104C255.188 731.365 409.573 883.167 600.021 883.167C790.479 883.167 944.865 731.365 944.865 544.104C944.865 356.854 790.479 205.042 600.021 205.042Z"/>
</mask>
<g mask="url(#mask53_0_1)">
<path stroke-width="12" stroke="white" d="M600.021 205.042C409.573 205.042 255.188 356.854 255.188 544.104C255.188 731.365 409.573 883.167 600.021 883.167C790.479 883.167 944.865 731.365 944.865 544.104C944.865 356.854 790.479 205.042 600.021 205.042Z"/>
</g>
</g>
<path fill="white" d="M245.709 467.984L221.334 462.193L220.459 461.984L220.667 461.109L221.459 457.776L221.667 456.943L222.542 457.151L246.917 462.943L247.751 463.151L247.542 463.984L246.751 467.318L246.542 468.193L245.709 467.984Z"/>
<path fill="white" d="M236.82 435.358L253.07 440.733L253.903 441.025L253.653 441.858L252.611 444.941L252.361 445.775L251.528 445.483L227.736 437.65L226.861 437.358L227.111 436.525L228.528 432.191L228.695 431.733L229.236 431.608L248.945 428.275L232.57 422.9L231.695 422.608L231.986 421.733L232.986 418.691L233.278 417.816L234.153 418.108L257.945 425.941L258.778 426.233L258.486 427.108L257.778 429.358L257.111 431.275L256.945 431.816L256.403 431.858L236.82 435.358Z"/>
<path fill="white" d="M239.988 400.591L247.572 383.383L247.947 382.591L248.78 382.966L251.53 384.175L252.322 384.55L251.947 385.341L249.197 391.591L268.572 400.133L269.363 400.466L268.988 401.3L267.613 404.383L267.28 405.216L266.488 404.883L247.113 396.341L244.363 402.55L243.988 403.383L243.197 403.008L240.447 401.8L239.613 401.425L239.988 400.591Z"/>
<path fill="white" d="M256.221 366.244L263.554 353.077L263.971 352.286L264.804 352.744L267.346 354.161L268.137 354.619L267.721 355.411L262.471 364.827L267.554 367.661L272.012 359.661L272.429 358.869L273.221 359.286L275.721 360.702L276.471 361.119L276.054 361.911L271.596 369.911L277.679 373.244L282.929 363.827L283.346 363.036L284.137 363.494L286.679 364.911L287.429 365.327L287.012 366.119L279.679 379.286L279.262 380.036L278.512 379.619L256.637 367.452L255.804 366.994L256.221 366.244Z"/>
<path fill="white" d="M289.848 333.939L294.64 326.981L295.14 326.231L295.848 326.731L306.807 334.272L307.515 334.772L307.015 335.522L305.307 338.022L304.807 338.772L304.098 338.272L303.557 337.897C303.557 338.512 303.494 339.179 303.39 339.897C303.161 341.345 302.609 342.72 301.723 344.022C300.807 345.356 299.692 346.387 298.39 347.106C297.994 347.356 297.567 347.585 297.098 347.772C296.65 347.939 296.182 348.085 295.682 348.189C295.203 348.304 294.723 348.387 294.223 348.439C292.723 348.554 291.171 348.377 289.557 347.897C288.755 347.647 287.932 347.335 287.098 346.939C286.265 346.554 285.453 346.085 284.64 345.522C282.921 344.335 281.505 343.012 280.39 341.564C279.255 340.127 278.453 338.595 277.973 336.981C277.786 336.46 277.661 335.918 277.598 335.356C277.546 334.804 277.515 334.252 277.515 333.689C277.515 333.137 277.557 332.585 277.64 332.022C277.921 330.387 278.63 328.752 279.765 327.106C280.713 325.752 281.713 324.647 282.765 323.814C282.88 323.731 283.005 323.647 283.14 323.564C283.255 323.46 283.369 323.356 283.473 323.272C283.588 323.189 283.713 323.106 283.848 323.022C283.963 322.939 284.078 322.856 284.182 322.772C284.296 322.689 284.421 322.627 284.557 322.564C284.671 322.481 284.786 322.418 284.89 322.356C285.005 322.272 285.14 322.21 285.307 322.147C285.453 322.095 285.578 322.022 285.682 321.939C285.796 321.835 285.921 321.762 286.057 321.731L286.765 321.356L287.223 322.022L288.848 324.689L289.348 325.522L288.473 325.939C288.14 326.106 287.828 326.293 287.515 326.481C287.213 326.647 286.921 326.835 286.64 327.022C286.338 327.22 286.046 327.418 285.765 327.606C285.38 327.918 285.005 328.262 284.64 328.647C284.255 329.012 283.89 329.439 283.557 329.939C283.255 330.356 283.015 330.772 282.848 331.189C282.682 331.606 282.578 332.064 282.515 332.564C282.38 333.481 282.453 334.387 282.723 335.272C283.036 336.272 283.557 337.252 284.307 338.189C285.119 339.189 286.171 340.137 287.473 341.022C288.619 341.835 289.744 342.397 290.848 342.731C291.932 343.095 292.932 343.252 293.848 343.189C294.734 343.137 295.557 342.887 296.307 342.439C296.692 342.272 297.036 342.043 297.348 341.731C297.65 341.429 297.942 341.064 298.223 340.647C298.39 340.429 298.525 340.21 298.64 339.981C298.775 339.731 298.9 339.46 299.015 339.147C299.098 338.929 299.161 338.689 299.223 338.439C299.307 338.168 299.359 337.918 299.39 337.689C299.411 337.554 299.432 337.387 299.432 337.189C299.453 337.002 299.473 336.835 299.473 336.689C299.494 336.522 299.494 336.356 299.473 336.189C299.494 336.106 299.515 336.012 299.515 335.897C299.515 335.793 299.494 335.679 299.473 335.564C299.442 335.46 299.432 335.377 299.432 335.314L295.973 332.939L293.515 336.481L293.015 337.189L292.307 336.689L290.057 335.147L289.348 334.647L289.848 333.939Z"/>
<path fill="white" d="M327.29 310.201L320.081 308.201C318.467 307.733 317.092 307.681 315.956 308.035C315.623 308.201 315.29 308.389 314.956 308.576C314.602 308.774 314.248 309.024 313.915 309.326C313.56 309.639 313.185 309.983 312.79 310.368L320.54 316.951L321.206 317.535L320.665 318.201L318.456 320.785L317.873 321.451L317.206 320.868L298.123 304.701L297.54 304.201L297.998 303.493C298.394 302.993 298.779 302.493 299.165 301.993C299.529 301.493 299.862 301.024 300.165 300.576C300.862 299.639 301.654 298.649 302.54 297.618C303.571 296.399 304.612 295.431 305.665 294.701C306.748 293.983 307.821 293.514 308.873 293.285C309.956 293.066 311.019 293.097 312.04 293.368C313.04 293.618 313.977 294.108 314.831 294.826C316.352 296.108 317.185 297.608 317.331 299.326C317.415 300.441 317.269 301.618 316.915 302.868C317.102 302.847 317.31 302.816 317.54 302.785C317.758 302.733 317.977 302.722 318.206 302.743C318.54 302.743 318.852 302.764 319.165 302.785C319.467 302.785 319.8 302.816 320.165 302.868C320.852 302.951 321.644 303.118 322.54 303.368L328.706 305.035L329.623 305.326L329.331 306.16L328.456 309.576L328.206 310.451L327.29 310.201ZM306.081 300.66C305.831 300.972 305.602 301.264 305.373 301.535C305.123 301.816 304.915 302.076 304.748 302.326C304.665 302.41 304.602 302.493 304.54 302.576C304.487 302.66 304.435 302.743 304.373 302.826C304.29 302.889 304.227 302.951 304.165 303.035L309.248 307.368L311.248 305.035C312.227 303.868 312.769 302.722 312.873 301.576C312.956 300.576 312.571 299.722 311.706 298.993C311.352 298.691 310.977 298.493 310.581 298.41C310.196 298.306 309.748 298.306 309.248 298.41C308.748 298.524 308.237 298.764 307.706 299.118C307.185 299.483 306.644 299.993 306.081 300.66Z"/>
<path fill="white" d="M337.877 295.56L328.127 271.393L327.836 270.81L328.294 270.393L330.961 267.81L331.419 267.393L332.002 267.643L355.752 278.31L356.544 278.685L356.169 279.477L354.752 282.518L354.461 283.393L353.627 282.977L347.169 280.018L339.711 287.227L342.377 293.727L342.711 294.56L341.919 294.893L339.002 296.06L338.169 296.435L337.877 295.56ZM337.794 282.643L342.627 277.977L334.211 274.06L337.794 282.643Z"/>
<path fill="white" d="M350.363 250.289L365.072 238.623L365.738 238.081L366.322 238.831L368.197 241.164L368.738 241.831L368.072 242.373L362.738 246.623L375.905 263.206L376.447 263.873L375.738 264.414L373.072 266.539L372.405 267.081L371.863 266.414L358.697 249.831L353.363 254.039L352.655 254.623L352.113 253.956L350.238 251.623L349.655 250.873L350.363 250.289Z"/>
<path fill="white" d="M394.383 249.626L380.341 228.876L379.841 228.126L380.591 227.626L383.424 225.71L384.133 225.21L384.633 225.96L398.674 246.71L399.174 247.418L398.466 247.918L395.633 249.835L394.883 250.335L394.383 249.626Z"/>
<path fill="white" d="M399.721 216.29L401.929 213.54L402.513 212.832L403.263 213.457L418.846 226.957L415.596 206.582L415.388 205.748L416.346 205.582L419.596 205.082L420.513 204.957L420.596 205.873L424.471 231.415L424.554 231.998L424.013 232.29L420.638 234.165L420.138 234.457L419.721 234.082L399.804 217.582L399.138 216.998L399.721 216.29Z"/>
<path fill="white" d="M436.11 195.991L449.86 189.866L450.693 189.491L451.068 190.324L452.276 192.991L452.61 193.824L451.776 194.199L441.985 198.574L444.36 203.908L452.693 200.199L453.526 199.824L453.901 200.616L455.068 203.241L455.401 204.033L454.568 204.408L446.235 208.116L449.068 214.449L458.86 210.074L459.693 209.699L460.068 210.533L461.235 213.199L461.61 213.991L460.776 214.366L447.026 220.491L446.235 220.824L445.86 220.033L435.693 197.158L435.318 196.324L436.11 195.991Z"/>
<path fill="white" d="M493.785 174.511L508.327 170.636L509.244 170.428L509.494 171.303L510.244 174.136L510.452 175.011L509.535 175.22L499.16 178.011L500.66 183.636L509.494 181.261L510.369 181.053L510.619 181.928L511.327 184.678L511.577 185.553L510.702 185.761L501.869 188.136L503.619 194.803L513.994 192.011L514.91 191.803L515.16 192.678L515.91 195.511L516.119 196.345L515.202 196.553L500.66 200.428L499.827 200.678L499.619 199.845L493.202 175.636L492.952 174.761L493.785 174.511Z"/>
<path fill="white" d="M548.941 172.601L545.733 184.435L545.566 184.976L544.983 185.101L541.65 185.601L541.066 185.685L540.733 185.226L534.108 174.893L536.65 191.226L536.775 192.101L535.9 192.226L532.691 192.726L531.816 192.851L531.691 191.976L527.816 167.226L527.65 166.351L528.525 166.226L530.983 165.851L533.275 165.476L533.816 165.393L534.15 165.851L542.358 178.726L546.191 163.976L546.316 163.435L549.025 163.018L551.65 162.601L552.566 162.476L552.733 163.351L556.608 188.101L556.733 188.976L555.816 189.101L552.441 189.643L551.608 189.768L551.483 188.893L548.941 172.601Z"/>
<path fill="white" d="M573.889 160.545L588.889 159.795L589.805 159.711L589.847 160.628L590.014 163.545L590.055 164.461L589.139 164.545L578.43 165.086L578.722 170.878L587.805 170.42L588.722 170.336L588.764 171.211L588.93 174.086L588.972 174.961L588.055 175.045L578.972 175.503L579.305 182.42L590.014 181.878L590.93 181.795L590.972 182.711L591.139 185.628L591.18 186.503L590.264 186.586L575.264 187.336L574.389 187.378L574.347 186.503L573.055 161.503L573.014 160.586L573.889 160.545Z"/>
<path fill="white" d="M622.09 187.005L619.256 180.088C618.642 178.536 617.84 177.421 616.84 176.755C616.506 176.567 616.142 176.401 615.756 176.255C615.392 176.088 614.975 175.963 614.506 175.88C614.059 175.796 613.569 175.734 613.048 175.671L612.631 185.838L612.59 186.713L611.715 186.671L608.298 186.505L607.423 186.463L607.465 185.588L608.548 160.63L608.59 159.838L609.423 159.796C610.059 159.776 610.684 159.755 611.298 159.755C611.902 159.734 612.486 159.713 613.048 159.713C614.184 159.692 615.434 159.703 616.798 159.755C618.402 159.817 619.819 160.036 621.048 160.421C622.298 160.838 623.319 161.401 624.131 162.088C624.986 162.838 625.631 163.692 626.048 164.63C626.465 165.546 626.642 166.578 626.59 167.713C626.506 169.692 625.819 171.276 624.548 172.463C623.736 173.213 622.725 173.828 621.506 174.296C621.673 174.463 621.84 174.619 622.006 174.755C622.173 174.901 622.309 175.067 622.423 175.255C622.611 175.505 622.798 175.755 622.965 176.005C623.152 176.255 623.35 176.546 623.548 176.88C623.881 177.463 624.215 178.192 624.548 179.046L627.006 184.963L627.381 185.838L626.548 186.171L623.298 187.546L622.423 187.88L622.09 187.005ZM616.59 164.38C616.194 164.359 615.819 164.338 615.465 164.338C615.1 164.317 614.767 164.317 614.465 164.338C614.35 164.317 614.236 164.317 614.131 164.338C614.017 164.338 613.902 164.338 613.798 164.338C613.715 164.338 613.631 164.338 613.548 164.338L613.256 171.005L616.298 171.13C617.819 171.192 619.069 170.921 620.048 170.338C620.881 169.786 621.319 168.942 621.381 167.796C621.402 167.359 621.34 166.942 621.173 166.546C621.006 166.161 620.725 165.817 620.34 165.505C619.944 165.171 619.434 164.911 618.798 164.713C618.184 164.526 617.444 164.411 616.59 164.38Z"/>
<path fill="white" d="M655.612 175.499L663.945 176.666L664.82 176.791L664.695 177.666L662.82 190.833L662.695 191.708L661.82 191.583L658.82 191.166L657.945 191.041L658.07 190.166L658.153 189.499C657.57 189.77 656.945 190.02 656.278 190.249C654.882 190.718 653.403 190.843 651.82 190.624C650.237 190.395 648.83 189.874 647.612 189.041C647.195 188.791 646.799 188.499 646.445 188.166C646.112 187.833 645.778 187.479 645.445 187.083C645.132 186.697 644.841 186.291 644.57 185.874C643.789 184.604 643.247 183.124 642.945 181.458C642.799 180.604 642.737 179.729 642.737 178.833C642.737 177.916 642.789 176.979 642.903 175.999C643.205 173.916 643.757 172.062 644.57 170.416C645.341 168.749 646.362 167.354 647.612 166.208C647.997 165.822 648.424 165.479 648.903 165.166C649.372 164.864 649.841 164.583 650.32 164.333C650.82 164.083 651.33 163.874 651.862 163.708C653.466 163.208 655.257 163.104 657.237 163.374C658.872 163.624 660.299 164.041 661.528 164.624C661.664 164.687 661.799 164.749 661.945 164.833C662.08 164.916 662.205 164.989 662.32 165.041C662.424 165.104 662.539 165.166 662.653 165.249C662.789 165.312 662.924 165.374 663.07 165.458C663.205 165.541 663.33 165.624 663.445 165.708C663.549 165.77 663.664 165.833 663.778 165.916C663.882 165.979 663.997 166.062 664.112 166.166C664.247 166.249 664.372 166.333 664.487 166.416C664.622 166.499 664.747 166.572 664.862 166.624L665.487 167.166L665.112 167.874L663.445 170.499L662.903 171.291L662.153 170.708C661.82 170.52 661.507 170.322 661.237 170.124C660.955 169.906 660.653 169.708 660.32 169.541C660.007 169.354 659.716 169.166 659.445 168.999C658.997 168.781 658.528 168.604 658.028 168.458C657.528 168.291 656.987 168.166 656.403 168.083C655.872 167.999 655.372 167.979 654.903 167.999C654.455 168.031 654.007 168.124 653.57 168.291C652.705 168.572 651.924 169.041 651.237 169.708C650.487 170.406 649.841 171.322 649.32 172.458C648.757 173.624 648.372 174.989 648.153 176.541C647.955 177.906 647.945 179.166 648.112 180.333C648.299 181.447 648.622 182.395 649.07 183.166C649.507 183.979 650.112 184.614 650.862 185.083C651.164 185.333 651.528 185.541 651.945 185.708C652.362 185.854 652.82 185.958 653.32 186.041C653.591 186.072 653.872 186.083 654.153 186.083C654.424 186.083 654.716 186.072 655.028 186.041C655.247 186.02 655.487 185.979 655.737 185.916C656.007 185.864 656.257 185.791 656.487 185.708C656.653 185.656 656.799 185.604 656.945 185.541C657.112 185.489 657.257 185.437 657.403 185.374C657.57 185.291 657.716 185.208 657.862 185.124C657.945 185.104 658.039 185.062 658.153 184.999C658.257 184.947 658.362 184.895 658.445 184.833C658.549 184.749 658.622 184.697 658.653 184.666L659.237 180.499L654.987 179.916L654.112 179.791L654.237 178.958L654.612 176.249L654.737 175.374L655.612 175.499Z"/>
<path fill="white" d="M686.521 169.209L701.146 172.793L702.021 173.001L701.771 173.876L701.105 176.709L700.896 177.626L700.021 177.418L689.563 174.876L688.146 180.543L697.021 182.709L697.896 182.918L697.688 183.751L697.021 186.543L696.813 187.376L695.938 187.168L687.063 185.001L685.438 191.751L695.896 194.293L696.771 194.501L696.563 195.376L695.646 199.043L694.771 198.834L680.146 195.251L679.271 195.043L679.48 194.209L685.396 169.876L685.646 169.001L686.521 169.209Z"/>
<path fill="white" d="M721.837 188.265L716.171 204.432L715.879 205.265L715.046 204.973L712.004 203.89L711.171 203.64L711.462 202.807L719.754 179.182L720.046 178.307L720.879 178.557L725.171 180.098L725.629 180.265L725.712 180.807L728.712 200.598L734.421 184.307L734.712 183.432L735.587 183.723L738.587 184.807L739.462 185.098L739.171 185.973L730.879 209.598L730.587 210.432L729.712 210.14L727.462 209.348L725.546 208.682L725.046 208.473L724.962 207.932L721.837 188.265Z"/>
<path fill="white" d="M756.177 206.663C755.948 207.142 755.76 207.58 755.594 207.996C755.448 208.392 755.323 208.788 755.219 209.205C755.135 209.6 755.073 209.986 755.052 210.371C754.906 211.569 754.948 212.642 755.177 213.58C755.26 213.913 755.354 214.246 755.469 214.58C755.573 214.892 755.698 215.184 755.844 215.455C756.01 215.725 756.187 215.975 756.385 216.205C757.021 216.955 757.802 217.548 758.719 217.996C759.656 218.434 760.552 218.715 761.385 218.83C762.219 218.913 763.073 218.892 763.969 218.788L764.969 218.705L764.927 219.788L764.635 222.788L764.594 223.58L763.802 223.621C762.719 223.673 761.562 223.6 760.344 223.413C759.094 223.215 757.739 222.788 756.302 222.121C754.719 221.371 753.396 220.382 752.344 219.163C751.281 217.934 750.531 216.559 750.094 215.038C749.646 213.538 749.521 211.892 749.719 210.08C749.906 208.309 750.437 206.475 751.302 204.58C752.156 202.778 753.219 201.236 754.469 199.955C755.719 198.621 757.073 197.621 758.552 196.955C760.104 196.288 761.729 195.955 763.427 195.955C764.229 195.986 765.052 196.111 765.885 196.33C766.739 196.528 767.604 196.819 768.469 197.205C769.635 197.767 770.614 198.361 771.427 198.996C772.281 199.642 773.031 200.361 773.677 201.163L774.219 201.788L773.635 202.371L771.51 204.58L770.76 205.205L770.177 204.455C769.677 203.85 769.135 203.288 768.552 202.788C768.354 202.621 768.146 202.486 767.927 202.371C767.729 202.236 767.51 202.1 767.26 201.955C767.01 201.788 766.729 201.642 766.427 201.496C765.979 201.278 765.51 201.111 765.01 200.996C764.531 200.861 764.062 200.809 763.594 200.83C763.146 200.83 762.687 200.871 762.219 200.955C761.771 201.038 761.323 201.194 760.885 201.413C760.437 201.642 760.01 201.903 759.594 202.205C759.177 202.517 758.76 202.892 758.344 203.33C757.51 204.225 756.781 205.33 756.177 206.663Z"/>
<path fill="white" d="M793.007 223.773L804.507 217.439L805.298 217.064L805.757 217.856L807.257 220.523L807.757 221.356L806.882 221.773L792.507 229.481L787.798 237.439L787.34 238.189L786.548 237.731L783.632 236.023L782.882 235.564L783.34 234.814L788.048 226.856L787.757 210.481L787.715 209.606L788.59 209.564H792.84V210.439L793.007 223.773Z"/>
<path fill="white" d="M831.696 260.986C831.78 261.517 831.905 262.027 832.071 262.527C832.238 263.007 832.446 263.465 832.696 263.944C833.165 264.913 833.905 265.819 834.905 266.652C835.509 267.152 836.092 267.507 836.655 267.736C837.207 267.986 837.738 268.132 838.238 268.194C839.176 268.246 839.946 267.923 840.53 267.236C840.582 267.173 840.624 267.111 840.655 267.027C840.707 266.965 840.749 266.913 840.78 266.861C840.832 266.798 840.874 266.746 840.905 266.694C840.957 266.632 840.988 266.569 840.988 266.486C841.009 266.423 841.04 266.361 841.071 266.277C841.176 266.027 841.207 265.663 841.155 265.194C841.124 264.715 840.946 264.132 840.613 263.444C840.301 262.694 839.874 261.777 839.321 260.694C838.592 259.444 838.051 258.34 837.696 257.361C837.28 256.34 837.03 255.361 836.946 254.444C836.946 254.142 836.946 253.85 836.946 253.569C836.967 253.298 837.009 253.007 837.071 252.694C837.124 252.392 837.207 252.1 837.321 251.819C837.624 251.017 838.092 250.225 838.738 249.444C839.405 248.673 840.176 248.069 841.071 247.652C841.988 247.236 842.988 247.048 844.071 247.069C845.092 247.132 846.176 247.361 847.321 247.777C848.426 248.257 849.54 248.944 850.655 249.861C851.842 250.861 852.821 251.882 853.571 252.902C854.321 253.902 854.967 255.017 855.53 256.236L855.863 256.986L855.155 257.444L852.321 258.902L851.405 259.277L851.071 258.361C850.988 258.09 850.874 257.809 850.738 257.527C850.592 257.257 850.446 256.975 850.28 256.694C850.134 256.423 849.957 256.111 849.738 255.777C849.155 254.923 848.446 254.142 847.613 253.444C847.051 253.007 846.53 252.673 846.03 252.444C845.53 252.194 845.071 252.027 844.655 251.944C844.374 251.923 844.113 251.934 843.863 251.986C843.634 252.017 843.446 252.09 843.28 252.194C843.113 252.309 842.957 252.465 842.821 252.652C842.571 252.934 842.405 253.215 842.321 253.486C842.207 253.715 842.196 254.007 842.28 254.361C842.301 254.59 842.363 254.84 842.446 255.111C842.551 255.361 842.676 255.673 842.821 256.027C842.905 256.194 842.988 256.382 843.071 256.569C843.155 256.767 843.249 256.975 843.363 257.194C843.467 257.423 843.592 257.652 843.738 257.902C843.905 258.152 844.04 258.402 844.155 258.652C844.926 259.965 845.509 261.152 845.905 262.236C845.988 262.434 846.051 262.642 846.113 262.861C846.196 263.09 846.249 263.288 846.28 263.486C846.332 263.705 846.384 263.913 846.446 264.111C846.499 264.33 846.53 264.538 846.53 264.736C846.551 264.923 846.571 265.121 846.571 265.319C846.655 266.319 846.53 267.215 846.196 268.027C845.884 268.798 845.426 269.548 844.821 270.277C843.988 271.277 843.04 272.027 841.988 272.527C840.957 272.965 839.863 273.173 838.696 273.152C837.582 273.152 836.415 272.882 835.196 272.361C834.082 271.882 832.988 271.205 831.905 270.319C830.509 269.152 829.374 267.871 828.488 266.486C827.655 265.121 827.092 263.788 826.821 262.486L826.571 261.694L827.405 261.444L830.53 260.319L831.488 259.986L831.696 260.986Z"/>
<path fill="white" d="M871.492 269.034L882.783 280.326L882.158 280.993L880.075 283.034L879.45 283.701L871.2 275.451L867.075 279.576L874.2 286.701L871.533 289.368L870.908 289.951L863.783 282.826L858.908 287.743L867.158 295.993L866.492 296.618L864.45 298.701L863.825 299.326L851.95 287.451L870.283 269.118L870.908 268.451L871.492 269.034Z"/>
<path fill="white" d="M884.151 322.564L887.401 315.814C888.12 314.314 888.412 312.96 888.276 311.772C888.193 311.408 888.078 311.033 887.943 310.647C887.797 310.283 887.609 309.897 887.359 309.481C887.13 309.085 886.87 308.689 886.568 308.272L878.734 314.772L878.068 315.314L877.484 314.606L875.318 311.981L874.776 311.314L875.443 310.772L894.693 294.814L895.318 294.314L895.859 294.939C896.328 295.387 896.776 295.835 897.193 296.272C897.609 296.72 898.005 297.147 898.401 297.564C899.172 298.377 899.995 299.304 900.859 300.356C901.88 301.585 902.672 302.793 903.234 303.981C903.755 305.179 904.026 306.304 904.026 307.356C904.047 308.502 903.859 309.533 903.443 310.481C903.026 311.418 902.37 312.252 901.484 312.981C899.953 314.231 898.328 314.783 896.609 314.647C895.495 314.564 894.359 314.21 893.193 313.606C893.214 313.825 893.234 314.043 893.234 314.272C893.234 314.491 893.203 314.71 893.151 314.939C893.068 315.21 892.995 315.502 892.943 315.814C892.88 316.147 892.797 316.491 892.693 316.856C892.464 317.491 892.162 318.21 891.776 319.022L888.984 324.897L888.609 325.647L887.818 325.314L884.609 323.814L883.776 323.397L884.151 322.564ZM897.276 303.356C897.026 303.054 896.787 302.762 896.568 302.481C896.339 302.21 896.12 301.96 895.901 301.731C895.818 301.627 895.734 301.543 895.651 301.481C895.568 301.397 895.495 301.335 895.443 301.272C895.38 301.189 895.328 301.127 895.276 301.064L890.151 305.314L892.068 307.647C893.037 308.814 894.078 309.543 895.193 309.856C896.162 310.127 897.089 309.908 897.984 309.189C898.318 308.887 898.568 308.554 898.734 308.189C898.901 307.804 898.964 307.356 898.943 306.856C898.943 306.335 898.797 305.793 898.526 305.231C898.245 304.647 897.828 304.022 897.276 303.356Z"/>
<path fill="white" d="M916.735 322.646L919.694 324.687L920.444 325.187L919.902 325.937L907.735 342.604L927.735 337.687L928.569 337.437L928.777 338.396L929.527 341.562L929.735 342.437L928.819 342.646L903.652 348.521L903.152 348.687L902.777 348.187L900.652 345.021L900.319 344.521L900.61 344.021L915.485 322.896L916.027 322.146L916.735 322.646Z"/>
<path fill="white" d="M916.74 369.144L938.573 356.894L939.365 356.436L939.823 357.186L941.907 360.936L941.115 361.394L919.282 373.644L918.532 374.061L916.448 370.311L915.99 369.561L916.74 369.144Z"/>
<path fill="white" d="M940.753 387.837C940.305 388.055 939.888 388.264 939.503 388.462C939.138 388.68 938.773 388.92 938.419 389.17C938.055 389.441 937.753 389.712 937.503 389.962C936.607 390.764 935.961 391.628 935.544 392.545C935.346 392.816 935.19 393.107 935.086 393.42C935.003 393.753 934.93 394.066 934.878 394.378C934.846 394.68 934.815 394.982 934.794 395.295C934.763 396.264 934.961 397.222 935.378 398.17C935.815 399.107 936.336 399.889 936.919 400.503C937.503 401.107 938.138 401.67 938.836 402.17L939.753 402.753L936.878 405.628L936.294 406.253L935.669 405.712C934.805 405.066 933.961 404.274 933.128 403.337C932.315 402.357 931.586 401.17 930.919 399.753C930.19 398.139 929.815 396.524 929.794 394.92C929.763 393.337 930.065 391.816 930.711 390.378C931.346 388.899 932.315 387.545 933.628 386.295C934.898 385.076 936.503 384.024 938.419 383.128C940.221 382.295 942.013 381.785 943.794 381.587C945.596 381.399 947.273 381.535 948.836 382.003C950.44 382.482 951.888 383.253 953.169 384.337C953.773 384.868 954.346 385.493 954.878 386.212C955.398 386.941 955.878 387.722 956.294 388.587C956.815 389.722 957.18 390.816 957.378 391.878C957.596 392.899 957.711 393.93 957.711 394.962V395.753L956.878 395.837L953.836 396.128L952.878 396.17V395.212C952.898 394.399 952.846 393.628 952.711 392.878C952.711 392.628 952.648 392.378 952.544 392.128C952.461 391.899 952.357 391.649 952.253 391.378C952.169 391.128 952.055 390.847 951.919 390.545C951.721 390.066 951.471 389.628 951.169 389.212C950.888 388.816 950.565 388.472 950.211 388.17C949.846 387.857 949.461 387.607 949.044 387.42C948.648 387.201 948.221 387.035 947.753 386.92C947.273 386.785 946.773 386.701 946.253 386.67C945.721 386.649 945.148 386.66 944.544 386.712C943.346 386.857 942.086 387.232 940.753 387.837Z"/>
<path fill="white" d="M966.173 413.597L971.173 427.763L971.464 428.638L970.631 428.93L967.881 429.888L967.006 430.222L966.714 429.347L963.131 419.222L957.631 421.138L960.673 429.722L960.964 430.597L960.131 430.888L957.423 431.847L956.589 432.138L956.298 431.263L953.256 422.68L946.756 424.972L950.339 435.097L950.631 435.972L949.756 436.305L947.006 437.263L946.173 437.555L945.881 436.68L940.881 422.513L940.589 421.68L941.423 421.388L965.048 413.055L965.881 412.763L966.173 413.597Z"/>
<path fill="white" d="M957.445 452.552C957.216 453.021 957.028 453.49 956.862 453.969C956.716 454.469 956.612 454.99 956.528 455.552C956.33 456.573 956.403 457.73 956.737 459.011C956.924 459.761 957.174 460.396 957.487 460.927C957.789 461.448 958.132 461.865 958.528 462.177C959.216 462.813 959.997 463.021 960.862 462.802C960.945 462.771 961.028 462.74 961.112 462.719C961.195 462.719 961.257 462.688 961.32 462.636C961.403 462.605 961.487 462.573 961.57 462.552C961.653 462.552 961.716 462.521 961.778 462.469C961.83 462.438 961.872 462.396 961.903 462.344C962.174 462.198 962.424 461.927 962.653 461.511C962.872 461.115 963.07 460.532 963.237 459.761C963.424 458.98 963.612 457.969 963.778 456.719C963.945 455.323 964.153 454.136 964.403 453.136C964.674 452.052 965.07 451.115 965.57 450.344C965.705 450.094 965.872 449.865 966.07 449.636C966.257 449.417 966.466 449.209 966.695 449.011C966.914 448.792 967.153 448.615 967.403 448.469C968.122 448 968.966 447.636 969.945 447.386C970.945 447.136 971.924 447.115 972.903 447.302C973.872 447.5 974.789 447.917 975.653 448.552C976.455 449.198 977.195 450.042 977.862 451.094C978.497 452.115 978.997 453.323 979.362 454.719C979.747 456.219 979.945 457.605 979.945 458.886C979.945 460.157 979.799 461.438 979.528 462.719L979.362 463.594L978.528 463.469L975.362 462.969L974.403 462.802L974.653 461.844C974.757 461.532 974.83 461.23 974.862 460.927C974.914 460.646 974.955 460.344 974.987 460.011C975.039 459.677 975.07 459.323 975.07 458.969C975.122 457.907 975.028 456.855 974.778 455.802C974.58 455.105 974.341 454.511 974.07 454.011C973.82 453.532 973.549 453.146 973.278 452.844C973.049 452.677 972.83 452.532 972.612 452.427C972.414 452.313 972.216 452.261 972.028 452.261C971.83 452.261 971.612 452.282 971.362 452.344C970.997 452.427 970.705 452.552 970.487 452.719C970.237 452.855 970.039 453.094 969.903 453.427C969.789 453.594 969.695 453.813 969.612 454.094C969.549 454.396 969.487 454.73 969.403 455.094C969.341 455.261 969.289 455.438 969.237 455.636C969.174 455.855 969.132 456.073 969.112 456.302C969.08 456.552 969.049 456.813 969.028 457.094C968.997 457.396 968.966 457.698 968.945 458.011C968.747 459.511 968.507 460.813 968.237 461.927C968.153 462.146 968.07 462.355 967.987 462.552C967.924 462.771 967.862 462.98 967.778 463.177C967.695 463.365 967.612 463.563 967.528 463.761C967.445 463.948 967.341 464.136 967.237 464.302C967.153 464.469 967.049 464.636 966.945 464.802C966.414 465.605 965.778 466.261 965.028 466.761C964.33 467.23 963.528 467.573 962.612 467.802C961.33 468.136 960.122 468.177 958.987 467.927C957.872 467.677 956.862 467.198 955.945 466.511C955.028 465.844 954.247 464.938 953.612 463.802C952.966 462.74 952.487 461.532 952.153 460.177C951.705 458.396 951.528 456.698 951.612 455.094C951.747 453.48 952.08 452.073 952.612 450.886L952.987 450.094L953.695 450.386L956.903 451.302L957.862 451.636L957.445 452.552Z"/>
<path stroke-width="50.7564" stroke="#F83807" d="M478.24 450.042V710.698"/>
<path stroke-width="50.7564" stroke="#F83807" d="M600.885 579.083H355.552"/>
<path stroke-width="58.6871" stroke="white" d="M653.542 479.385H546.615"/>
<path stroke-width="58.6871" stroke="white" d="M653.542 681.229H546.615"/>
<path fill="white" d="M847.005 637.483C847.005 652.598 843.338 665.733 836.005 676.9C828.692 688.046 818.025 696.639 804.005 702.692C790.005 708.744 773.005 711.775 753.005 711.775C744.171 711.775 735.525 711.192 727.088 710.025C718.671 708.858 710.598 707.15 702.88 704.9C695.15 702.629 687.796 699.796 680.796 696.4V646.192C692.9 651.525 705.463 656.348 718.463 660.65C731.484 664.962 744.4 667.108 757.213 667.108C766.046 667.108 773.15 665.962 778.546 663.65C783.963 661.317 787.89 658.129 790.338 654.067C792.775 649.983 794.005 645.317 794.005 640.067C794.005 633.681 791.848 628.223 787.546 623.692C783.234 619.171 777.338 614.931 769.838 610.983C762.338 607.014 753.88 602.764 744.463 598.233C738.546 595.431 732.088 592.025 725.088 588.025C718.109 584.025 711.484 579.129 705.213 573.317C698.932 567.483 693.796 560.421 689.796 552.108C685.796 543.806 683.796 533.837 683.796 522.192C683.796 506.973 687.275 493.962 694.255 483.15C701.223 472.317 711.182 464.025 724.13 458.275C737.098 452.525 752.421 449.65 770.088 449.65C783.359 449.65 796.015 451.192 808.046 454.275C820.067 457.358 832.65 461.806 845.796 467.608L828.338 509.65C816.609 504.879 806.098 501.181 796.796 498.567C787.484 495.962 778.015 494.65 768.38 494.65C761.63 494.65 755.859 495.733 751.088 497.9C746.338 500.046 742.734 503.056 740.296 506.942C737.848 510.837 736.63 515.337 736.63 520.442C736.63 526.504 738.39 531.598 741.921 535.733C745.473 539.848 750.817 543.817 757.963 547.65C765.13 551.483 774.057 555.962 784.755 561.067C797.775 567.233 808.9 573.671 818.13 580.358C827.38 587.056 834.505 594.9 839.505 603.9C844.505 612.9 847.005 624.098 847.005 637.483Z"/>
<path fill="white" d="M426.496 882.56L427.787 879.935L428.162 879.143L428.954 879.518L443.746 886.768L444.537 887.185L444.162 887.977L442.871 890.602L442.496 891.393L441.704 890.977L426.912 883.727L426.121 883.352L426.496 882.56Z"/>
<path fill="white" d="M463.901 897.483C463.703 897.962 463.536 898.4 463.401 898.816C463.286 899.233 463.203 899.65 463.151 900.066C463.088 900.483 463.067 900.9 463.067 901.316C463.005 902.483 463.13 903.545 463.442 904.483C463.526 904.816 463.63 905.139 463.776 905.441C463.942 905.722 464.109 906.004 464.276 906.275C464.463 906.556 464.661 906.795 464.859 906.983C465.526 907.67 466.338 908.202 467.317 908.566C468.286 908.952 469.171 909.16 469.984 909.191C470.838 909.212 471.703 909.16 472.567 909.025L473.609 908.816V909.9L473.567 912.9L473.609 913.691L472.817 913.816C471.755 913.952 470.609 913.983 469.359 913.9C468.109 913.785 466.734 913.452 465.234 912.9C463.588 912.254 462.192 911.368 461.026 910.233C459.88 909.118 459.036 907.827 458.484 906.358C457.921 904.837 457.661 903.181 457.692 901.4C457.776 899.597 458.171 897.722 458.901 895.775C459.619 893.92 460.536 892.306 461.651 890.941C462.817 889.525 464.119 888.431 465.567 887.65C467.036 886.847 468.588 886.389 470.234 886.275C471.088 886.254 471.953 886.306 472.817 886.441C473.671 886.587 474.536 886.816 475.401 887.15C476.619 887.597 477.661 888.108 478.526 888.691C479.411 889.275 480.213 889.931 480.942 890.65L481.484 891.233L480.984 891.9L478.984 894.191L478.317 894.941L477.651 894.233C477.119 893.65 476.567 893.139 475.984 892.691C475.755 892.525 475.526 892.389 475.276 892.275C475.046 892.17 474.817 892.045 474.567 891.9C474.317 891.764 474.036 891.639 473.734 891.525C473.255 891.358 472.776 891.233 472.276 891.15C471.796 891.066 471.328 891.056 470.859 891.108C470.411 891.139 469.963 891.222 469.526 891.358C469.078 891.472 468.63 891.67 468.192 891.941C467.776 892.191 467.359 892.483 466.942 892.816C466.546 893.15 466.171 893.556 465.817 894.025C465.036 894.972 464.401 896.129 463.901 897.483Z"/>
<path fill="white" d="M492.318 907.505C492.818 905.651 493.568 903.995 494.568 902.547C495.537 901.047 496.714 899.838 498.11 898.922C499.464 897.984 500.995 897.37 502.693 897.088C503.547 896.953 504.422 896.911 505.318 896.963C506.235 897.026 507.162 897.172 508.11 897.422C509.078 897.672 509.964 898.005 510.776 898.422C511.61 898.818 512.339 899.297 512.985 899.88C513.672 900.411 514.276 901.005 514.776 901.672C515.297 902.318 515.755 903.026 516.151 903.797C516.901 905.245 517.339 906.87 517.485 908.672C517.589 910.422 517.412 912.213 516.943 914.047C516.464 915.859 515.745 917.495 514.776 918.963C514.443 919.443 514.089 919.89 513.735 920.338C513.37 920.807 512.964 921.224 512.526 921.588C512.078 921.974 511.63 922.307 511.193 922.588C510.495 923.088 509.755 923.484 508.985 923.797C508.203 924.099 507.401 924.338 506.568 924.505C504.87 924.838 503.047 924.734 501.11 924.213C499.162 923.713 497.526 922.89 496.193 921.755C495.88 921.474 495.578 921.182 495.276 920.88C494.964 920.599 494.693 920.297 494.443 919.963C494.193 919.63 493.943 919.297 493.693 918.963C493.464 918.609 493.276 918.234 493.11 917.838C492.38 916.338 491.953 914.703 491.818 912.922C491.672 911.151 491.839 909.338 492.318 907.505ZM497.443 908.88C497.276 909.463 497.162 910.047 497.11 910.63C497.047 911.213 497.026 911.818 497.026 912.422C497.047 913.005 497.12 913.568 497.235 914.088C497.339 914.62 497.505 915.13 497.735 915.63C497.755 915.797 497.818 915.953 497.901 916.088C498.005 916.234 498.11 916.37 498.193 916.505C498.276 916.651 498.37 916.797 498.485 916.963C498.589 917.13 498.693 917.286 498.776 917.422C498.88 917.536 498.995 917.661 499.11 917.797C499.245 917.911 499.37 918.026 499.485 918.13C500.235 918.828 501.162 919.328 502.276 919.63C502.714 919.734 503.12 919.818 503.485 919.88C503.87 919.932 504.235 919.943 504.568 919.922C504.922 919.89 505.276 919.849 505.61 919.797C506.61 919.599 507.505 919.203 508.318 918.588C508.589 918.401 508.839 918.172 509.068 917.922C509.287 917.672 509.505 917.411 509.735 917.13C509.985 916.859 510.214 916.547 510.443 916.213C511.026 915.161 511.495 913.984 511.86 912.672C512.162 911.536 512.287 910.401 512.235 909.255C512.172 908.12 511.943 907.036 511.526 906.005C511.11 905.068 510.526 904.213 509.776 903.463C509.047 902.776 508.11 902.276 506.943 901.963C506.693 901.911 506.412 901.859 506.11 901.797C505.797 901.745 505.526 901.713 505.276 901.713C505.026 901.713 504.755 901.734 504.485 901.755C504.203 901.755 503.964 901.797 503.776 901.88C503.245 901.943 502.755 902.078 502.318 902.297C501.87 902.526 501.453 902.776 501.068 903.047C500.203 903.693 499.464 904.495 498.86 905.463C498.245 906.495 497.776 907.63 497.443 908.88Z"/>
<path fill="white" d="M547.541 933.13L532.791 930.755L531.916 930.63L532.041 929.755L535.999 905.047L536.166 904.13L537.041 904.255L540.416 904.797L541.291 904.922L541.124 905.839L537.791 926.672L548.291 928.38L549.124 928.505L548.999 929.38L548.499 932.38L548.374 933.255L547.541 933.13Z"/>
<path fill="white" d="M564.742 921.683C564.846 919.767 565.252 918.006 565.95 916.392C566.638 914.725 567.554 913.298 568.7 912.1C569.888 910.933 571.294 910.048 572.908 909.433C573.71 909.131 574.554 908.913 575.45 908.767C576.335 908.631 577.263 908.6 578.242 908.683C579.242 908.746 580.169 908.892 581.033 909.142C581.919 909.371 582.742 909.683 583.492 910.1C584.294 910.496 585.002 910.965 585.617 911.517C586.252 912.079 586.835 912.683 587.367 913.35C588.367 914.631 589.127 916.142 589.658 917.892C590.096 919.59 590.263 921.371 590.158 923.225C590.044 925.09 589.658 926.84 588.992 928.475C588.763 929.006 588.513 929.538 588.242 930.058C587.96 930.558 587.638 931.048 587.283 931.517C586.95 931.965 586.585 932.381 586.2 932.767C585.638 933.381 585.002 933.913 584.283 934.35C583.554 934.819 582.804 935.204 582.033 935.517C580.419 936.183 578.617 936.444 576.617 936.308C574.617 936.194 572.867 935.725 571.367 934.892C570.971 934.663 570.596 934.444 570.242 934.225C569.908 934.006 569.575 933.756 569.242 933.475C568.929 933.204 568.627 932.913 568.325 932.6C568.044 932.298 567.783 931.975 567.533 931.642C566.533 930.308 565.783 928.788 565.283 927.058C564.804 925.34 564.627 923.548 564.742 921.683ZM570.033 922.017C570.002 922.631 570.002 923.225 570.033 923.808C570.085 924.371 570.179 924.954 570.325 925.558C570.492 926.09 570.669 926.621 570.867 927.142C571.085 927.642 571.346 928.121 571.658 928.558C571.742 928.704 571.835 928.84 571.95 928.975C572.054 929.121 572.169 929.246 572.283 929.35C572.388 929.465 572.502 929.59 572.617 929.725C572.752 929.871 572.888 929.996 573.033 930.1C573.169 930.183 573.304 930.288 573.45 930.392C573.585 930.506 573.721 930.6 573.867 930.683C574.7 931.215 575.7 931.517 576.867 931.6C577.304 931.631 577.71 931.631 578.075 931.6C578.46 931.579 578.825 931.517 579.158 931.433C579.513 931.35 579.846 931.246 580.158 931.1C581.096 930.715 581.919 930.142 582.617 929.392C582.804 929.142 582.992 928.881 583.158 928.6C583.346 928.298 583.533 927.975 583.7 927.642C583.888 927.308 584.054 926.975 584.2 926.642C584.585 925.475 584.825 924.225 584.908 922.892C584.992 921.725 584.877 920.59 584.575 919.475C584.294 918.371 583.846 917.35 583.242 916.433C582.658 915.579 581.919 914.85 581.033 914.267C580.169 913.746 579.138 913.454 577.95 913.392C577.669 913.371 577.377 913.371 577.075 913.392C576.794 913.392 576.533 913.423 576.283 913.475C576.033 913.506 575.783 913.558 575.533 913.642C575.304 913.704 575.085 913.788 574.867 913.892C574.388 914.058 573.95 914.298 573.533 914.6C573.117 914.881 572.752 915.215 572.45 915.6C571.752 916.381 571.179 917.308 570.742 918.392C570.346 919.506 570.117 920.715 570.033 922.017Z"/>
<path fill="white" d="M622.829 935.857L619.413 929.191C618.631 927.722 617.715 926.68 616.663 926.066C616.329 925.93 615.965 925.805 615.579 925.691C615.215 925.555 614.798 925.461 614.329 925.399C613.85 925.347 613.35 925.316 612.829 925.316L613.288 935.482L613.329 936.357L612.454 936.399L609.038 936.566L608.163 936.607L608.121 935.732L607.038 910.774L606.996 909.982L607.829 909.857C608.465 909.774 609.09 909.711 609.704 909.649C610.308 909.566 610.892 909.503 611.454 909.441C612.558 909.305 613.798 909.211 615.163 909.149C616.767 909.066 618.215 909.17 619.496 909.441C620.767 909.753 621.84 910.222 622.704 910.857C623.621 911.524 624.329 912.305 624.829 913.191C625.329 914.086 625.59 915.097 625.621 916.232C625.725 918.211 625.204 919.847 624.038 921.149C623.288 921.961 622.329 922.649 621.163 923.232C621.329 923.378 621.496 923.513 621.663 923.649C621.829 923.795 621.996 923.941 622.163 924.107C622.35 924.336 622.548 924.566 622.746 924.816C622.965 925.045 623.173 925.305 623.371 925.607C623.756 926.191 624.163 926.888 624.579 927.691L627.496 933.399L627.913 934.232L627.204 934.649L624.038 936.274L623.246 936.691L622.829 935.857ZM615.371 913.774C614.975 913.805 614.6 913.836 614.246 913.857C613.881 913.857 613.548 913.878 613.246 913.899C613.131 913.899 613.017 913.92 612.913 913.941C612.798 913.972 612.683 913.982 612.579 913.982C612.496 913.982 612.413 913.982 612.329 913.982L612.621 920.649L615.663 920.524C617.183 920.472 618.413 920.097 619.329 919.399C620.131 918.795 620.506 917.92 620.454 916.774C620.423 916.336 620.308 915.93 620.121 915.566C619.923 915.18 619.621 914.847 619.204 914.566C618.788 914.295 618.256 914.086 617.621 913.941C616.975 913.805 616.225 913.753 615.371 913.774Z"/>
<path fill="white" d="M642.635 932.291L648.885 906.999L649.01 906.374L649.594 906.291L653.302 905.749L653.885 905.666L654.177 906.249L667.219 928.749L667.677 929.541L666.885 929.958L663.969 931.666L663.177 932.166L662.76 931.333L659.302 925.166L649.01 926.624L647.385 933.499L647.177 934.374L646.302 934.166L643.302 933.374L642.385 933.208L642.635 932.291ZM650.135 921.833L656.802 920.874L652.219 912.749L650.135 921.833Z"/>
<path fill="white" d="M678.812 901.241C679.062 901.137 679.333 901.033 679.604 900.95C679.885 900.845 680.146 900.762 680.396 900.7C680.646 900.616 680.916 900.533 681.187 900.45C681.468 900.345 681.729 900.241 681.979 900.158C683 899.825 684.208 899.481 685.604 899.116C687.771 898.595 689.75 898.47 691.562 898.741C693.364 899.023 694.958 899.658 696.354 900.658C697.739 901.606 698.875 902.814 699.771 904.283C700.687 905.762 701.364 907.398 701.812 909.2C702.25 910.981 702.416 912.72 702.312 914.408C702.281 914.773 702.239 915.137 702.187 915.491C702.156 915.825 702.104 916.158 702.021 916.491C701.937 916.825 701.833 917.148 701.729 917.45C701.646 917.762 701.531 918.075 701.396 918.408C701.281 918.72 701.125 919.023 700.937 919.325C700.187 920.856 699.062 922.189 697.562 923.325C696.031 924.408 694.125 925.241 691.854 925.825C691.625 925.887 691.406 925.939 691.187 925.991C690.989 926.054 690.781 926.106 690.562 926.158C690.364 926.189 690.166 926.231 689.979 926.283C689.812 926.314 689.625 926.356 689.437 926.408C689.239 926.439 689.041 926.481 688.854 926.533C688.687 926.564 688.521 926.595 688.354 926.616C687.354 926.814 686.333 926.981 685.312 927.116L684.479 927.158L684.312 926.408L678.229 902.241L678.062 901.533L678.812 901.241ZM686.646 903.741C686.312 903.825 685.989 903.908 685.687 903.991C685.406 904.075 685.125 904.158 684.854 904.241C684.604 904.304 684.364 904.366 684.146 904.45L688.479 921.7C688.562 921.7 688.614 921.7 688.646 921.7C688.698 921.679 688.75 921.658 688.812 921.658C688.896 921.637 688.948 921.616 688.979 921.616C689.031 921.616 689.104 921.606 689.187 921.575C689.687 921.47 690.229 921.345 690.812 921.2C691.114 921.116 691.396 921.033 691.646 920.95C691.916 920.866 692.166 920.783 692.396 920.7C692.646 920.595 692.875 920.481 693.104 920.366C693.354 920.262 693.573 920.148 693.771 920.033C693.958 919.898 694.146 919.762 694.312 919.616C695.229 918.95 695.916 918.158 696.396 917.241C696.864 916.325 697.104 915.304 697.104 914.158C697.156 913.023 697.031 911.783 696.729 910.45C696.416 909.314 695.979 908.241 695.396 907.241C694.812 906.273 694.104 905.47 693.271 904.825C692.854 904.523 692.406 904.273 691.937 904.075C691.458 903.856 690.937 903.689 690.354 903.575C689.239 903.356 688 903.408 686.646 903.741Z"/>
<path fill="white" d="M717.092 904.554C716.426 902.752 716.071 900.961 716.009 899.179C715.988 897.377 716.28 895.711 716.884 894.179C717.467 892.627 718.373 891.252 719.592 890.054C720.238 889.45 720.926 888.908 721.676 888.429C722.446 887.961 723.301 887.544 724.217 887.179C725.155 886.846 726.071 886.617 726.967 886.471C727.884 886.336 728.769 886.304 729.634 886.388C730.488 886.45 731.321 886.596 732.134 886.846C732.936 887.096 733.717 887.429 734.467 887.846C735.905 888.596 737.196 889.669 738.342 891.054C739.446 892.45 740.321 894.013 740.967 895.763C741.603 897.513 741.946 899.283 742.009 901.054C742.03 901.617 742.019 902.179 741.967 902.763C741.905 903.346 741.811 903.919 741.676 904.471C741.53 905.033 741.363 905.575 741.176 906.096C740.894 906.877 740.519 907.617 740.051 908.304C739.571 909.002 739.051 909.669 738.467 910.304C737.238 911.533 735.686 912.492 733.801 913.179C731.905 913.877 730.113 914.158 728.426 914.013C727.978 913.929 727.551 913.867 727.134 913.804C726.717 913.721 726.311 913.627 725.926 913.513C725.53 913.408 725.144 913.263 724.759 913.096C724.363 912.908 723.988 912.721 723.634 912.554C722.155 911.721 720.853 910.617 719.717 909.221C718.613 907.867 717.738 906.304 717.092 904.554ZM722.051 902.721C722.238 903.283 722.478 903.825 722.759 904.346C723.061 904.877 723.384 905.377 723.717 905.846C724.103 906.263 724.488 906.669 724.884 907.054C725.269 907.45 725.686 907.783 726.134 908.054C726.269 908.169 726.405 908.263 726.551 908.346C726.717 908.408 726.863 908.471 727.009 908.554C727.176 908.617 727.342 908.679 727.509 908.763C727.676 908.825 727.821 908.877 727.967 908.929C728.134 908.992 728.311 909.033 728.509 909.054C728.696 909.086 728.863 909.117 729.009 909.138C730.03 909.283 731.092 909.138 732.176 908.721C732.592 908.586 732.967 908.429 733.301 908.263C733.634 908.096 733.936 907.908 734.217 907.679C734.488 907.461 734.738 907.221 734.967 906.971C735.686 906.252 736.217 905.408 736.551 904.429C736.634 904.127 736.696 903.804 736.759 903.471C736.811 903.138 736.853 902.794 736.884 902.429C736.905 902.044 736.905 901.658 736.884 901.263C736.801 900.075 736.519 898.836 736.051 897.554C735.634 896.45 735.061 895.45 734.342 894.554C733.644 893.638 732.842 892.888 731.926 892.304C731.03 891.752 730.061 891.388 729.009 891.221C728.009 891.086 726.946 891.211 725.842 891.596C725.592 891.711 725.321 891.836 725.051 891.971C724.801 892.086 724.561 892.211 724.342 892.346C724.144 892.492 723.936 892.638 723.717 892.804C723.519 892.971 723.342 893.158 723.176 893.346C722.842 893.711 722.53 894.117 722.259 894.554C722.009 894.971 721.811 895.408 721.676 895.846C721.342 896.846 721.186 897.929 721.217 899.096C721.301 900.263 721.571 901.471 722.051 902.721Z"/>
<path fill="white" d="M757.031 890.597L755.74 887.972L755.365 887.181L756.156 886.806L770.948 879.556L771.74 879.139L772.115 879.931L773.406 882.556L773.781 883.347L772.99 883.764L758.198 891.014L757.406 891.389L757.031 890.597Z"/>
</svg>